<svg width="42" height="36" viewBox="0 0 42 36" fill="none" xmlns="http://www.w3.org/2000/svg">
<path d="M3.51048 29.2302C2.09363 29.2302 0.636719 30.3656 0.636719 32.3529C0.636719 34.1697 1.91768 35.4529 3.51048 35.4529C4.82526 35.4529 5.41124 34.5704 5.41124 34.5704V34.9551C5.41124 35.1369 5.58314 35.3398 5.79591 35.3398H6.74629V29.366H5.41124V30.124C5.41124 30.124 4.82035 29.2302 3.51048 29.2302V29.2302ZM3.7483 30.4518C4.91467 30.4518 5.5265 31.4775 5.5265 32.3525C5.5265 33.327 4.80007 34.2525 3.75078 34.2525C2.87363 34.2525 1.99498 33.5421 1.99498 32.3396C1.99498 31.2541 2.75112 30.4518 3.7483 30.4518Z" fill="#0F0518" fill-opacity="0.5"/>
<path d="M8.60147 35.3416C8.39636 35.3416 8.2168 35.1945 8.2168 34.9569V29.3678H9.55184V30.1071C9.85437 29.6523 10.4454 29.2302 11.3526 29.2302C12.8353 29.2302 13.6249 30.4122 13.6249 31.5175V35.3416H12.6971C12.4539 35.3416 12.2898 35.1379 12.2898 34.9343V31.8116C12.2898 31.199 11.9145 30.4549 11.0464 30.4549C10.1096 30.4549 9.55186 31.3402 9.55186 32.1737V35.3416L8.60147 35.3416Z" fill="#0F0518" fill-opacity="0.5"/>
<path d="M17.5163 29.2318C16.0995 29.2318 14.6426 30.3671 14.6426 32.3544C14.6426 34.1712 15.9235 35.4544 17.5163 35.4544C18.8311 35.4544 19.4171 34.572 19.4171 34.572V34.9566C19.4171 35.1384 19.589 35.3413 19.8017 35.3413H20.7521V26.3806H19.4171V30.1255C19.4171 30.1255 18.8262 29.2317 17.5163 29.2317V29.2318ZM17.7541 30.4533C18.9205 30.4533 19.5323 31.479 19.5323 32.354C19.5323 33.3285 18.8059 34.254 17.7566 34.254C16.8795 34.254 16.0008 33.5436 16.0008 32.3411C16.0008 31.2556 16.7569 30.4533 17.7541 30.4533Z" fill="#0F0518" fill-opacity="0.5"/>
<path d="M22.6073 35.34C22.4022 35.34 22.2227 35.1929 22.2227 34.9553V29.3662H23.5577V30.3619C23.7875 29.8041 24.2834 29.2983 25.1643 29.2983C25.4099 29.2983 25.6395 29.3436 25.6395 29.3436V30.7239C25.6395 30.7239 25.3528 30.6108 25.0059 30.6108C24.0692 30.6108 23.5577 31.496 23.5577 32.3295V35.34H22.6073Z" fill="#0F0518" fill-opacity="0.5"/>
<path d="M33.7401 35.3402C33.535 35.3402 33.3555 35.1931 33.3555 34.9556V29.3665H34.6905V35.3402L33.7401 35.3402Z" fill="#0F0518" fill-opacity="0.5"/>
<path d="M38.6062 29.2318C37.1893 29.2318 35.7324 30.3671 35.7324 32.3544C35.7324 34.1712 37.0134 35.4544 38.6062 35.4544C39.921 35.4544 40.5069 34.572 40.5069 34.572V34.9566C40.5069 35.1384 40.6788 35.3413 40.8916 35.3413H41.842V26.3806H40.5069V30.1255C40.5069 30.1255 39.9161 29.2317 38.6062 29.2317V29.2318ZM38.844 30.4533C40.0104 30.4533 40.6222 31.479 40.6222 32.354C40.6222 33.3285 39.8958 34.254 38.8465 34.254C37.9693 34.254 37.0907 33.5436 37.0907 32.3411C37.0907 31.2556 37.8468 30.4533 38.844 30.4533Z" fill="#0F0518" fill-opacity="0.5"/>
<path d="M34.0156 28.078C34.5031 28.078 34.8983 27.6828 34.8983 27.1952C34.8983 26.7077 34.5031 26.3125 34.0156 26.3125C33.528 26.3125 33.1328 26.7077 33.1328 27.1952C33.1328 27.6828 33.528 28.078 34.0156 28.078Z" fill="#0F0518" fill-opacity="0.5"/>
<path d="M29.1609 29.2273C27.6771 29.2273 26.0469 30.3349 26.0469 32.3413C26.0469 34.1697 27.4354 35.4522 29.1577 35.4522C31.2802 35.4522 32.3166 33.7459 32.3166 32.3529C32.3166 30.6435 30.982 29.2273 29.1609 29.2273ZM29.1658 30.474C30.1919 30.474 30.9573 31.3011 30.9573 32.3451C30.9573 33.4072 30.1448 34.2268 29.1688 34.2268C28.2629 34.2268 27.3822 33.4896 27.3822 32.3629C27.3822 31.2175 28.2198 30.474 29.1658 30.474Z" fill="#0F0518" fill-opacity="0.5"/>
<path d="M30.5293 6.9202L33.6884 1.49848C33.8666 1.19453 33.7588 0.808436 33.4562 0.631819C33.1536 0.455204 32.7597 0.557885 32.5856 0.86183L29.3851 6.35338C26.9432 5.24849 24.1946 4.63238 21.2387 4.63238C18.2828 4.63238 15.5341 5.24849 13.0923 6.35338L9.89177 0.86183C9.7135 0.557885 9.3238 0.455204 9.01702 0.631819C8.71023 0.808436 8.60659 1.19453 8.78485 1.49848L11.9439 6.9202C6.4964 9.84465 2.80668 15.3074 2.19727 21.7026H40.2801C39.6707 15.3074 35.981 9.84459 30.5294 6.9202H30.5293ZM12.4953 16.4041C11.6123 16.4041 10.8992 15.6935 10.8992 14.8228C10.8992 13.9479 11.6164 13.2414 12.4953 13.2414C13.3783 13.2414 14.0914 13.952 14.0914 14.8228C14.0956 15.6935 13.3783 16.4041 12.4953 16.4041ZM29.978 16.4041C29.0949 16.4041 28.3819 15.6935 28.3819 14.8228C28.3819 13.9479 29.0991 13.2414 29.978 13.2414C30.861 13.2414 31.5741 13.952 31.5741 14.8228C31.5782 15.6935 30.861 16.4041 29.978 16.4041Z" fill="#32DE84"/>
</svg>
