<svg width="39" height="44" viewBox="0 0 39 44" fill="none" xmlns="http://www.w3.org/2000/svg">
<path d="M38.3878 11.1477L19.4883 22.0006L38.3878 32.8535C38.6669 32.3884 38.8374 31.8457 38.8839 31.3031V12.6981C38.8374 12.1555 38.6669 11.6128 38.3878 11.1477ZM32.4032 22.7138H30.9768V24.1557H29.535V22.7138H28.0931V21.2874H29.535V19.8455H30.9768V21.2874H32.4032V22.7138ZM36.4188 22.7138V24.1557H34.9924V22.7138H33.442V21.2874H34.9924V19.8455H36.3568V21.2874H37.7987L37.8607 22.7138H36.4188Z" fill="#0F0518"/>
<path d="M19.4874 22.0005L13.9059 25.2098C14.4486 26.1711 15.2393 27.0083 16.2626 27.5975C19.3634 29.3805 23.3169 28.3107 25.0844 25.2253L30.6814 28.4657C28.3713 32.4813 24.0921 34.9464 19.4564 34.9464C14.6656 34.9309 10.495 32.3107 8.27794 28.4347L0.587891 32.8534C0.866965 33.365 1.28558 33.7991 1.78171 34.1092L17.7975 43.4117C18.8518 43.9543 20.1076 43.9543 21.1619 43.4117L37.1931 34.1092C37.6893 33.7991 38.0924 33.365 38.3714 32.8534L19.4874 22.0005Z" fill="#0F0518"/>
<path d="M6.57252 22.0001C6.55702 17.3643 9.03768 13.0852 13.0532 10.7751C19.2394 7.22464 27.131 9.3487 30.6814 15.5348L25.0845 18.7752C24.5108 17.7829 23.6891 16.9612 22.7123 16.4031C19.6115 14.6201 15.6579 15.6899 13.8905 18.7752C12.6967 20.8373 12.8052 23.2714 13.906 25.2094L19.4875 22.0001L38.3715 11.1472C38.0924 10.6355 37.6893 10.2014 37.1932 9.89135L21.1619 0.588868C20.1076 0.0462236 18.8518 0.0462236 17.7975 0.588868L1.78175 9.89135C0.804987 10.5115 0.184822 11.5503 0.0917969 12.6976V31.3025C0.138309 31.8452 0.308856 32.3878 0.58793 32.853L8.27798 28.4343C7.19269 26.5428 6.57252 24.3412 6.57252 22.0001Z" fill="#0F0518"/>
</svg>
