<svg width="43" height="48" viewBox="0 0 43 48" fill="none" xmlns="http://www.w3.org/2000/svg">
<g clip-path="url(#clip0_8396_20285)">
<path d="M2.29735 37.159L6.93068 39.7824L35.7039 8.21652L23.4541 1.2771C22.8109 0.90572 22.0812 0.710205 21.3384 0.710205C20.5957 0.710205 19.866 0.90572 19.2228 1.2771L2.29735 10.84C1.65163 11.2128 1.11588 11.7496 0.744352 12.396C0.372825 13.0425 0.178714 13.7756 0.181674 14.5212V33.5623C0.193448 34.2935 0.394539 35.0092 0.765331 35.6396C1.13612 36.2699 1.66396 36.7934 2.29735 37.159Z" fill="#0F0518"/>
<path d="M40.3772 10.8393L35.7016 8.21582L6.9707 39.7817L19.2205 46.7211C19.8637 47.0925 20.5934 47.288 21.3361 47.288C22.0789 47.288 22.8086 47.0925 23.4518 46.7211L40.3772 37.1583C41.023 36.7855 41.5587 36.2487 41.9302 35.6022C42.3018 34.9558 42.4959 34.2226 42.4929 33.477V14.4359C42.4811 13.7047 42.28 12.989 41.9093 12.3587C41.5385 11.7283 41.0106 11.2048 40.3772 10.8393Z" fill="#0F0518"/>
<path d="M25.7166 20.9945H32.2964C32.0233 18.3798 30.7551 15.9703 28.7544 14.2649C26.7537 12.5596 24.1737 11.689 21.5487 11.8336C19.9471 11.7714 18.3501 12.0457 16.861 12.6388C15.3719 13.2319 14.0236 14.1305 12.9033 15.2768C11.7829 16.4231 10.9153 17.7916 10.3564 19.2939C9.79753 20.7962 9.55983 22.3989 9.65863 23.9988C9.55043 25.592 9.78314 27.19 10.3412 28.6862C10.8993 30.1824 11.77 31.5424 12.8951 32.6755C14.0203 33.8087 15.3741 34.689 16.8663 35.2577C18.3585 35.8264 19.9548 36.0704 21.5487 35.9735C30.0114 35.9735 32.0002 29.9227 32.0002 26.7068H25.6531C25.6659 27.2431 25.5607 27.7756 25.3449 28.2667C25.1291 28.7578 24.808 29.1954 24.4043 29.5487C24.0006 29.9019 23.5242 30.1621 23.0088 30.3108C22.4934 30.4595 21.9516 30.4931 21.4218 30.4093C17.3809 30.4093 16.725 25.6067 16.725 24.0622C16.725 21.5657 17.6136 17.7152 21.4218 17.7152C22.421 17.6102 23.4225 17.8914 24.221 18.5012C25.0196 19.1109 25.5547 20.0029 25.7166 20.9945Z" fill="#FBFBFC"/>
</g>
<defs>
<clipPath id="clip0_8396_20285">
<rect width="42.3135" height="46.5449" fill="white" transform="translate(0.181641 0.727295)"/>
</clipPath>
</defs>
</svg>
