<svg width="40" height="41" viewBox="0 0 40 41" fill="none" xmlns="http://www.w3.org/2000/svg">
<path fill-rule="evenodd" clip-rule="evenodd" d="M10.7615 21.3771C10.7406 25.3516 13.655 27.721 18.3057 26.6438V16.1104C13.5962 14.6761 10.7812 17.5778 10.7615 21.3771ZM18.448 0.879395H24.8535V31.1988C18.7136 32.2026 12.8331 32.8392 8.62631 30.487C3.20962 27.4585 2.77416 17.8345 7.06039 13.5481C9.23358 11.375 13.6086 9.84519 18.3057 10.8435V1.30652C18.2935 1.1044 18.2821 0.903181 18.448 0.879395Z" fill="#0F0518"/>
<path fill-rule="evenodd" clip-rule="evenodd" d="M35.2453 7.56957H28.8398V0.879395H35.2453V7.56957Z" fill="#0F0518"/>
<path fill-rule="evenodd" clip-rule="evenodd" d="M35.2446 10.9575C35.2373 15.6744 35.2384 19.0638 35.2379 24.7941C34.9658 30.4255 35.0291 34.9099 32.9671 37.6045C32.5605 38.1358 31.6968 38.911 30.9742 39.4551C30.3674 39.9119 29.2109 40.8383 28.5544 40.8786C27.8926 40.9192 26.1922 39.9598 25.4227 39.5974C24.4122 39.1215 23.4781 38.4895 22.4336 38.174C24.8701 36.6642 27.183 35.5322 28.1273 32.4802C28.9485 29.8259 28.8391 25.9797 28.8391 22.2314C28.8391 18.5301 28.8556 14.2271 28.8556 10.9592L35.2446 10.9575Z" fill="#0F0518"/>
</svg>
