<svg width="18" height="23" viewBox="0 0 18 23" fill="none" xmlns="http://www.w3.org/2000/svg">
<path fill-rule="evenodd" clip-rule="evenodd" d="M9.75 4.0686C9.75 3.65439 9.41422 3.3186 9 3.3186C8.58579 3.3186 8.25 3.65439 8.25 4.0686L8.25001 13.1336L5.05414 9.6296C4.77501 9.32356 4.30064 9.30175 3.9946 9.58088C3.68856 9.86001 3.66674 10.3344 3.94587 10.6404L8.44587 15.5742C8.58798 15.7301 8.78912 15.8188 9 15.8188C9.21089 15.8188 9.41203 15.7301 9.55414 15.5742L14.0541 10.6404C14.3333 10.3344 14.3115 9.86001 14.0054 9.58088C13.6994 9.30175 13.225 9.32356 12.9459 9.6296L9.75001 13.1336L9.75 4.0686Z" fill="#00000080"/>
<path d="M2 18.0686H16" stroke="#00000080" stroke-width="1.5" stroke-linecap="round" stroke-linejoin="round"/>
</svg>
