<svg width="752" height="306" viewBox="0 0 752 306" fill="none" xmlns="http://www.w3.org/2000/svg">
<g style="mix-blend-mode:color-dodge">
<path d="M414.542 392.598C536.603 412.512 650.587 409.513 736.215 388.53C779.028 378.039 814.801 363.04 840.953 344.12C867.111 325.196 883.702 302.302 887.987 276.037C892.272 249.772 883.817 222.792 865.031 196.536C846.247 170.284 817.096 144.693 779.838 121.139C705.319 74.0294 598.198 34.9592 476.137 15.0458C354.075 -4.86758 240.091 -1.86904 154.463 19.114C111.651 29.6051 75.8775 44.6038 49.7249 63.5244C23.5675 82.4483 6.97596 105.342 2.69105 131.607C-1.59387 157.872 6.86106 184.852 25.6476 211.109C44.4307 237.36 73.5819 262.951 110.84 286.505C185.359 333.615 292.48 372.685 414.542 392.598Z" stroke="url(#paint0_linear_8595_20937)" stroke-width="2" stroke-linecap="round" stroke-linejoin="round"/>
</g>
<defs>
<linearGradient id="paint0_linear_8595_20937" x1="108.712" y1="52.6182" x2="513.164" y2="237.47" gradientUnits="userSpaceOnUse">
<stop stop-color="#fff"/>
<stop offset="2" stop-color="#fff" stop-opacity="0"/>
</linearGradient>
</defs>
</svg>
