<svg width="553" height="447" viewBox="0 0 553 447" fill="none" xmlns="http://www.w3.org/2000/svg">
<g style="mix-blend-mode:overlay">
<path d="M143.291 256.477C76.9575 349.251 31.6624 443.851 12.077 521.828C2.28513 560.813 -1.0936 595.695 2.57426 624.14C6.24239 652.586 16.9759 674.696 35.502 687.942C54.0282 701.188 78.4207 704.193 106.525 698.464C134.627 692.734 166.541 678.255 200.264 656.38C267.715 612.627 342.58 539.17 408.913 446.395C475.246 353.621 520.541 259.021 540.126 181.045C549.918 142.059 553.297 107.177 549.629 78.7325C545.961 50.286 535.227 28.1767 516.701 14.9306C498.175 1.68452 473.783 -1.32112 445.679 4.40856C417.577 10.1379 385.662 24.6172 351.939 46.492C284.489 90.2452 209.624 163.703 143.291 256.477Z" stroke="url(#paint0_linear_8595_20936)" stroke-width="2" stroke-linecap="round" stroke-linejoin="round"/>
</g>
<defs>
<linearGradient id="paint0_linear_8595_20936" x1="372.999" y1="113.379" x2="163.175" y2="233.954" gradientUnits="userSpaceOnUse">
<stop stop-color="#ac5ce0"/>
<stop offset="1" stop-color="#ac5ce0" stop-opacity="0"/>
</linearGradient>
</defs>
</svg>
