<svg width="52" height="23" viewBox="0 0 52 23" fill="none" xmlns="http://www.w3.org/2000/svg">
<path d="M4.67376 6.97266C4.57422 6.97266 4.54933 6.91578 4.5991 6.83047L5.12171 6.06261C5.17148 5.97729 5.29591 5.92041 5.39545 5.92041H14.2797C14.3792 5.92041 14.4041 6.00573 14.3543 6.09105L13.9313 6.83047C13.8815 6.91578 13.7571 7.0011 13.6824 7.0011L4.67376 6.97266Z" fill="#0F0518"/>
<path d="M0.917903 9.58619C0.818359 9.58619 0.793474 9.52931 0.843245 9.44399L1.36585 8.67613C1.41562 8.59081 1.54005 8.53394 1.63959 8.53394H12.9875C13.0871 8.53394 13.1368 8.61925 13.1119 8.70457L12.9129 9.38711C12.888 9.50087 12.7884 9.55775 12.6889 9.55775L0.917903 9.58619Z" fill="#0F0518"/>
<path d="M6.93939 12.2026C6.83984 12.2026 6.81496 12.1173 6.86473 12.032L7.21313 11.321C7.2629 11.2357 7.36245 11.1504 7.46199 11.1504H12.4392C12.5387 11.1504 12.5885 11.2357 12.5885 11.3495L12.5387 12.032C12.5387 12.1458 12.4392 12.2311 12.3645 12.2311L6.93939 12.2026Z" fill="#0F0518"/>
<path d="M32.7678 6.45928C31.1999 6.91431 30.1299 7.25558 28.5869 7.71061C28.2137 7.82437 28.1888 7.8528 27.8653 7.42622C27.492 6.94275 27.2182 6.62992 26.6956 6.34553C25.1278 5.46391 23.6098 5.71986 22.1913 6.77211C20.4991 8.02344 19.628 9.87199 19.6529 12.1756C19.6778 14.4507 21.0465 16.3277 23.0125 16.6405C24.7048 16.8965 26.1232 16.2139 27.2431 14.7635C27.4671 14.4507 27.6662 14.1094 27.915 13.7113C27.0191 13.7113 25.8993 13.7113 23.1121 13.7113C22.5895 13.7113 22.465 13.3416 22.6392 12.8581C22.9627 11.9765 23.56 10.4977 23.9084 9.75823C23.9831 9.5876 24.1573 9.30321 24.5306 9.30321C25.7997 9.30321 30.4783 9.30321 33.589 9.30321C33.5392 10.0711 33.5392 10.8389 33.4397 11.6068C33.1659 13.6544 32.494 15.5314 31.399 17.1809C29.6073 19.8826 27.268 21.5605 24.3066 22.0155C21.8678 22.3853 19.6032 21.8449 17.6123 20.1386C15.7707 18.546 14.7255 16.4415 14.4518 13.825C14.1283 10.7252 14.9246 7.93812 16.5671 5.49235C18.334 2.8475 20.6733 1.16959 23.5351 0.572362C25.8744 0.0888954 28.1141 0.401727 30.1299 1.96588C31.4488 2.96126 32.3945 4.32634 33.0166 5.97582C33.1659 6.23177 33.0664 6.37396 32.7678 6.45928Z" fill="#0F0518"/>
<path d="M41.0062 22.187C38.7416 22.1301 36.6761 21.3907 34.9341 19.6843C33.4658 18.2339 32.5451 16.3854 32.2464 14.1956C31.7985 10.9819 32.5699 8.13802 34.2622 5.60692C36.0788 2.87676 38.2688 1.4548 41.2302 0.857572C43.7685 0.345666 46.1576 0.630058 48.3227 2.30797C50.2886 3.84369 51.508 5.91976 51.8316 8.64992C52.2546 12.4892 51.2841 15.6175 48.9697 18.2908C47.3272 20.1963 45.3115 21.3907 42.9971 21.931C42.3252 22.0732 41.6533 22.1017 41.0062 22.187ZM46.929 10.6975C46.9042 10.3278 46.9042 10.0434 46.8544 9.75905C46.4064 6.94357 44.1418 5.35097 41.7777 5.97663C39.4633 6.57386 37.9702 8.25177 37.4227 10.9251C36.9747 13.1433 37.9204 15.39 39.7122 16.3001C41.0809 16.9826 42.4496 16.8973 43.7686 16.1294C45.7345 14.9634 46.8046 13.1433 46.929 10.6975Z" fill="#0F0518"/>
</svg>
