<svg width="39" height="39" viewBox="0 0 39 39" fill="none" xmlns="http://www.w3.org/2000/svg">
<path d="M34.4923 19.2772C34.4923 11.1286 27.8772 4.51343 19.7286 4.51343C11.58 4.51343 4.96484 11.1286 4.96484 19.2772C4.96484 27.4258 11.58 34.0409 19.7286 34.0409C27.8772 34.0409 34.4923 27.4258 34.4923 19.2772Z" fill="#000080"/>
<path d="M30.1677 13.1593C30.1677 10.7734 28.2304 8.83618 25.8446 8.83618C23.4587 8.83618 21.5215 10.7734 21.5215 13.1593C21.5215 15.5451 23.4587 17.4824 25.8446 17.4824C28.2304 17.4824 30.1677 15.5451 30.1677 13.1593Z" fill="#FBFBFC"/>
<path d="M38.8141 4.50863C38.8141 2.12278 36.8769 0.185547 34.4911 0.185547C32.1052 0.185547 30.168 2.12278 30.168 4.50863C30.168 6.89449 32.1052 8.83172 34.4911 8.83172C36.8769 8.83172 38.8141 6.89857 38.8141 4.50863Z" fill="#000080"/>
<path d="M10.9428 25.5657H15.7267V26.6547H9.70703V16.9685H10.9428V25.5657Z" fill="#FBFBFC"/>
<path d="M21.4398 26.6547V25.684C20.7873 26.6017 20.1388 26.9605 19.1151 26.9605C17.7611 26.9605 16.8965 26.2183 16.8965 25.06V19.6929H17.9976V24.6236C17.9976 25.4597 18.5564 25.994 19.4332 25.994C20.5874 25.994 21.3338 25.0641 21.3338 23.6407V19.6929H22.4349V26.6547H21.4398Z" fill="#FBFBFC"/>
<path d="M30.5323 26.8422C30.1734 26.936 30.0021 26.9604 29.7737 26.9604C29.0559 26.9604 28.7093 26.6423 28.6318 25.9368C27.8487 26.6546 27.1432 26.9604 26.2663 26.9604C24.8593 26.9604 23.9824 26.1652 23.9824 24.9009C23.9824 23.9955 24.3943 23.3715 25.2059 23.0411C25.6301 22.8698 25.8707 22.8168 27.4368 22.617C28.3137 22.5109 28.591 22.3111 28.591 21.8461V21.5525C28.591 20.8877 28.0323 20.5166 27.0371 20.5166C26.0012 20.5166 25.4955 20.9 25.4017 21.7523H24.2842C24.3128 21.0631 24.4433 20.6634 24.7614 20.3045C25.2263 19.7866 26.0624 19.4929 27.0738 19.4929C28.7868 19.4929 29.6922 20.1577 29.6922 21.3934V25.4881C29.6922 25.8348 29.9042 26.0346 30.2917 26.0346C30.3569 26.0346 30.41 26.0346 30.5323 26.0061V26.8422ZM28.591 23.2124C28.2199 23.3837 27.9792 23.4367 26.8087 23.5958C25.626 23.7671 25.1325 24.1423 25.1325 24.8723C25.1325 25.5779 25.6382 25.9898 26.5029 25.9898C27.1554 25.9898 27.6978 25.7777 28.1505 25.3658C28.4809 25.0599 28.591 24.8356 28.591 24.4604V23.2124Z" fill="#FBFBFC"/>
<path d="M36.7386 10.6062C38.1048 13.2898 38.8185 16.2589 38.8185 19.2728C38.8185 29.8113 30.2662 38.3637 19.7276 38.3637C9.18909 38.3637 0.636719 29.8113 0.636719 19.2728C0.636719 8.73425 9.18909 0.181885 19.7276 0.181885C23.1168 0.181885 26.4406 1.08321 29.3608 2.78797" stroke="#808080" stroke-width="0.348041" stroke-miterlimit="10" stroke-dasharray="1.31 1.31"/>
</svg>
