<svg width="54" height="46" viewBox="0 0 54 46" fill="none" xmlns="http://www.w3.org/2000/svg">
<path fill-rule="evenodd" clip-rule="evenodd" d="M25.91 3.36353C27.8514 3.36353 29.6201 4.48277 30.4561 6.23762L37.1162 20.2488C37.1162 20.2488 37.1162 20.2557 37.1093 20.2557C37.1093 20.2557 37.1093 20.2488 37.1162 20.2488C38.6776 18.335 39.8107 16.0828 40.2943 13.6647C40.8401 10.9357 43.4931 9.17389 46.2221 9.71278C46.8709 9.84239 47.4878 10.0985 48.0375 10.4666C48.5873 10.8347 49.0591 11.3075 49.4261 11.858C49.7931 12.4085 50.048 13.0258 50.1764 13.6749C50.3047 14.3239 50.3039 14.9919 50.174 15.6406C49.0547 21.2299 45.9319 26.225 41.7037 29.8936L44.1218 34.9785C45.4621 37.7973 44.0596 41.2449 41.0888 42.1292L40.999 42.1568C40.5568 42.2812 40.1009 42.3434 39.6587 42.3434C37.7726 42.3434 35.9694 41.2794 35.1057 39.4693L32.9571 34.9509L28.5838 25.7483L26.4351 21.2299C26.3884 21.132 26.315 21.0494 26.2233 20.9915C26.1316 20.9337 26.0254 20.903 25.917 20.903C25.8085 20.903 25.7023 20.9337 25.6106 20.9915C25.5189 21.0494 25.4455 21.132 25.3988 21.2299L23.2018 25.845C19.851 25.1334 16.4794 23.0607 14.5726 20.539L21.364 6.25144C21.7683 5.3873 22.4108 4.6565 23.2161 4.14493C24.0214 3.63336 24.956 3.36228 25.91 3.36353ZM6.87611 15.7857C9.45312 14.7424 12.3894 15.986 13.4326 18.5699C13.7021 19.2401 14.089 19.8965 14.5657 20.5252L14.5726 20.5321L14.8006 20.8222C14.8213 20.8499 14.842 20.8706 14.8628 20.8982L14.9249 20.9742C14.9595 21.0088 14.9871 21.0502 15.0217 21.0848C15.0286 21.0917 15.0355 21.0986 15.0355 21.1055L15.0217 21.0848C15.1529 21.2437 15.298 21.3957 15.4431 21.5477C15.45 21.5546 15.45 21.5615 15.4569 21.5615C15.9336 22.0589 16.4656 22.5287 17.0391 22.964C17.3085 23.1713 17.5849 23.3647 17.8681 23.5582C17.8958 23.572 17.9165 23.5927 17.9441 23.6065C19.5401 24.6567 21.3709 25.4443 23.1949 25.8312C23.9687 25.997 24.7424 26.0868 25.4955 26.0937H25.5922C26.594 26.0937 27.5958 25.9694 28.5769 25.7344L32.9502 34.9371C30.5873 35.7316 28.1071 36.1668 25.5922 36.1668C23.3261 36.1668 21.0324 35.773 18.8077 35.0614L16.7143 39.4624C16.422 40.077 16.0081 40.6261 15.4976 41.0762C14.987 41.5264 14.3905 41.8684 13.7441 42.0815C13.0977 42.2946 12.4147 42.3744 11.7366 42.3161C11.0584 42.2578 10.3991 42.0626 9.79856 41.7423C7.39428 40.4642 6.51685 37.4519 7.68445 34.9923L9.97819 30.1699C7.38737 27.9798 5.32162 25.3199 4.12638 22.432L4.09184 22.3422C3.05551 19.7652 4.2991 16.8289 6.87611 15.7857Z" fill="#0F0518"/>
<path fill-rule="evenodd" clip-rule="evenodd" d="M25.91 3.36353C27.8514 3.36353 29.6201 4.48277 30.4561 6.23762L37.1162 20.2488C37.1162 20.2488 37.1162 20.2557 37.1093 20.2557C37.1093 20.2557 37.1093 20.2488 37.1162 20.2488C38.6776 18.335 39.8107 16.0828 40.2943 13.6647C40.8401 10.9357 43.4931 9.17389 46.2221 9.71278C46.8709 9.84239 47.4878 10.0985 48.0375 10.4666C48.5873 10.8347 49.0591 11.3075 49.4261 11.858C49.7931 12.4085 50.048 13.0258 50.1764 13.6749C50.3047 14.3239 50.3039 14.9919 50.174 15.6406C49.0547 21.2299 45.9319 26.225 41.7037 29.8936L44.1218 34.9785C45.4621 37.7973 44.0596 41.2449 41.0888 42.1292L40.999 42.1568C40.5568 42.2812 40.1009 42.3434 39.6587 42.3434C37.7726 42.3434 35.9694 41.2794 35.1057 39.4693L32.9571 34.9509L28.5838 25.7483L26.4351 21.2299C26.3884 21.132 26.315 21.0494 26.2233 20.9915C26.1316 20.9337 26.0254 20.903 25.917 20.903C25.8085 20.903 25.7023 20.9337 25.6106 20.9915C25.5189 21.0494 25.4455 21.132 25.3988 21.2299L23.2018 25.845C19.851 25.1334 16.4794 23.0607 14.5726 20.539L21.364 6.25144C21.7683 5.3873 22.4108 4.6565 23.2161 4.14493C24.0214 3.63336 24.956 3.36228 25.91 3.36353ZM6.87611 15.7857C9.45312 14.7424 12.3894 15.986 13.4326 18.5699C13.7021 19.2401 14.089 19.8965 14.5657 20.5252L14.5726 20.5321L14.8006 20.8222C14.8213 20.8499 14.842 20.8706 14.8628 20.8982L14.9249 20.9742C14.9595 21.0088 14.9871 21.0502 15.0217 21.0848C15.0286 21.0917 15.0355 21.0986 15.0355 21.1055L15.0217 21.0848C15.1529 21.2437 15.298 21.3957 15.4431 21.5477C15.45 21.5546 15.45 21.5615 15.4569 21.5615C15.9336 22.0589 16.4656 22.5287 17.0391 22.964C17.3085 23.1713 17.5849 23.3647 17.8681 23.5582C17.8958 23.572 17.9165 23.5927 17.9441 23.6065C19.5401 24.6567 21.3709 25.4443 23.1949 25.8312C23.9687 25.997 24.7424 26.0868 25.4955 26.0937H25.5922C26.594 26.0937 27.5958 25.9694 28.5769 25.7344L32.9502 34.9371C30.5873 35.7316 28.1071 36.1668 25.5922 36.1668C23.3261 36.1668 21.0324 35.773 18.8077 35.0614L16.7143 39.4624C16.422 40.077 16.0081 40.6261 15.4976 41.0762C14.987 41.5264 14.3905 41.8684 13.7441 42.0815C13.0977 42.2946 12.4147 42.3744 11.7366 42.3161C11.0584 42.2578 10.3991 42.0626 9.79856 41.7423C7.39428 40.4642 6.51685 37.4519 7.68445 34.9923L9.97819 30.1699C7.38737 27.9798 5.32162 25.3199 4.12638 22.432L4.09184 22.3422C3.05551 19.7652 4.2991 16.8289 6.87611 15.7857Z" fill="#FBFBFC"/>
<path d="M37.1162 20.2488L30.4561 6.23762C29.6201 4.48277 27.8514 3.36353 25.91 3.36353C24.956 3.36228 24.0214 3.63336 23.2161 4.14493C22.4108 4.6565 21.7683 5.3873 21.364 6.25144L14.5726 20.539C16.4794 23.0607 19.851 25.1334 23.2018 25.845L25.3988 21.2299C25.4455 21.132 25.5189 21.0494 25.6106 20.9915C25.7023 20.9337 25.8085 20.903 25.9169 20.903C26.0254 20.903 26.1316 20.9337 26.2233 20.9915C26.315 21.0494 26.3884 21.132 26.4351 21.2299L28.5838 25.7483M37.1162 20.2488C37.1162 20.2488 37.1162 20.2557 37.1093 20.2557C37.1093 20.2557 37.1093 20.2488 37.1162 20.2488ZM37.1162 20.2488C38.6776 18.335 39.8107 16.0828 40.2943 13.6647C40.8401 10.9357 43.4931 9.17389 46.2221 9.71278C46.8709 9.84239 47.4878 10.0985 48.0375 10.4666C48.5873 10.8347 49.0591 11.3075 49.4261 11.858C49.7931 12.4085 50.048 13.0258 50.1764 13.6749C50.3047 14.3239 50.3039 14.9919 50.174 15.6406C49.0547 21.2299 45.9319 26.225 41.7037 29.8936L44.1218 34.9785C45.4621 37.7973 44.0596 41.2449 41.0888 42.1292L40.999 42.1568C40.5568 42.2812 40.1009 42.3434 39.6587 42.3434C37.7726 42.3434 35.9694 41.2794 35.1057 39.4693L32.9571 34.9509L28.5838 25.7483M28.5838 25.7483H28.5976M15.0217 21.0848C14.9871 21.0502 14.9595 21.0088 14.9249 20.9742L14.8628 20.8982C14.842 20.8706 14.8213 20.8499 14.8006 20.8222L14.5726 20.5321L14.5657 20.5252C14.089 19.8965 13.7021 19.2401 13.4326 18.5699C12.3894 15.986 9.45312 14.7424 6.87611 15.7857C4.2991 16.8289 3.05551 19.7652 4.09184 22.3422L4.12638 22.432C5.32162 25.3199 7.38737 27.9798 9.97819 30.1699L7.68445 34.9923C6.51685 37.4519 7.39428 40.4642 9.79856 41.7423C10.3991 42.0626 11.0584 42.2578 11.7366 42.3161C12.4147 42.3744 13.0977 42.2946 13.7441 42.0815C14.3905 41.8684 14.987 41.5264 15.4976 41.0762C16.0081 40.6261 16.422 40.077 16.7143 39.4624L18.8077 35.0614C21.0324 35.773 23.3261 36.1668 25.5922 36.1668C28.1071 36.1668 30.5873 35.7316 32.9502 34.9371L28.5769 25.7344C27.5958 25.9693 26.594 26.0937 25.5922 26.0937H25.4955C24.7424 26.0868 23.9687 25.997 23.1949 25.8312C21.3709 25.4443 19.5401 24.6567 17.9441 23.6065C17.9165 23.5927 17.8958 23.572 17.8681 23.5582C17.5849 23.3647 17.3085 23.1713 17.0391 22.964C16.4656 22.5287 15.9336 22.0589 15.4569 21.5615C15.45 21.5615 15.45 21.5546 15.4431 21.5477C15.298 21.3957 15.1529 21.2437 15.0217 21.0848ZM15.0217 21.0848C15.0286 21.0917 15.0355 21.0986 15.0355 21.1055L15.0217 21.0848Z" stroke="#FBFBFC" stroke-width="5.54735" stroke-linejoin="round"/>
<path fill-rule="evenodd" clip-rule="evenodd" d="M18.8081 35.0614L23.1952 25.8312C19.8444 25.1195 16.4729 23.0469 14.566 20.5251L9.97852 30.1699C12.5279 32.3324 15.5885 34.032 18.8081 35.0614Z" fill="#1A007F"/>
<path fill-rule="evenodd" clip-rule="evenodd" d="M37.1175 20.2485C34.9136 22.9499 31.8529 24.9535 28.5781 25.7342L32.9514 34.9368C36.1433 33.859 39.128 32.118 41.705 29.8864L37.1175 20.2485Z" fill="#4E000A"/>
<path fill-rule="evenodd" clip-rule="evenodd" d="M9.97836 30.1704L7.68461 34.9928C6.51701 37.4454 7.39444 40.4646 9.79873 41.7428C12.3481 43.0969 15.4847 42.0398 16.7145 39.4628L18.8079 35.0619C15.5752 34.0197 12.5763 32.3583 9.97836 30.1704Z" fill="#1A007F"/>
<path fill-rule="evenodd" clip-rule="evenodd" d="M46.2211 9.72009C45.5724 9.5902 44.9044 9.5894 44.2554 9.71772C43.6064 9.84604 42.989 10.101 42.4385 10.468C41.888 10.8349 41.4152 11.3068 41.0472 11.8566C40.6791 12.4063 40.4229 13.0232 40.2933 13.672C39.8097 16.0901 38.6766 18.3424 37.1152 20.2561L41.6958 29.9009C45.924 26.2323 49.0469 21.2372 50.1661 15.6479C50.7119 12.912 48.9432 10.259 46.2211 9.72009Z" fill="#FF9396"/>
<path fill-rule="evenodd" clip-rule="evenodd" d="M28.5769 25.7345C27.5958 25.9694 26.594 26.0937 25.5922 26.0937C24.8115 26.0937 24.0032 26.0039 23.1949 25.8312C19.8441 25.1196 16.4725 23.0469 14.5657 20.5252C14.089 19.8965 13.7021 19.2401 13.4326 18.57C12.3894 15.993 9.45312 14.7494 6.87611 15.7857C4.2991 16.8289 3.05551 19.7652 4.09184 22.3422C5.27325 25.2716 7.35973 27.9591 9.97819 30.17C12.5736 32.3578 15.5703 34.0192 18.8008 35.0614C21.0186 35.773 23.3192 36.1668 25.5853 36.1668C28.1002 36.1668 30.5804 35.7316 32.9433 34.9371L28.5769 25.7345Z" fill="#002DC8"/>
<path fill-rule="evenodd" clip-rule="evenodd" d="M44.1146 34.9716L41.6965 29.8867L37.1159 20.2488L37.109 20.2557C37.109 20.2557 37.109 20.2488 37.1159 20.2488L30.4558 6.23762C30.0469 5.37802 29.4029 4.65184 28.5984 4.14318C27.7938 3.63452 26.8616 3.36419 25.9097 3.36353C23.9683 3.36353 22.1997 4.48276 21.3637 6.23762L14.5723 20.5252C16.4791 23.0469 19.8506 25.1196 23.2014 25.8312L25.3985 21.216C25.6057 20.7808 26.2275 20.7808 26.4348 21.216L28.5834 25.7344L32.9568 34.9371L35.1054 39.4555C35.514 40.3167 36.1588 41.0442 36.9649 41.553C37.771 42.0619 38.7051 42.3312 39.6584 42.3295C40.1074 42.3295 40.5565 42.2674 40.9987 42.143C44.0317 41.307 45.4687 37.8181 44.1146 34.9716Z" fill="#FF536A"/>
<path fill-rule="evenodd" clip-rule="evenodd" d="M18.808 35.0614L23.1952 25.8312C19.8444 25.1195 16.4729 23.0469 14.566 20.5251L9.97852 30.1699C12.5279 32.3324 15.5885 34.032 18.808 35.0614Z" fill="#1A007F"/>
<path fill-rule="evenodd" clip-rule="evenodd" d="M37.1175 20.2485C34.9136 22.9499 31.8529 24.9535 28.5781 25.7342L32.9514 34.9368C36.1433 33.859 39.128 32.118 41.705 29.8864L37.1175 20.2485Z" fill="#4E000A"/>
<path fill-rule="evenodd" clip-rule="evenodd" d="M9.97836 30.1704L7.68461 34.9928C6.51701 37.4454 7.39444 40.4646 9.79873 41.7428C12.3481 43.0969 15.4847 42.0398 16.7145 39.4628L18.8079 35.0619C15.5752 34.0197 12.5763 32.3583 9.97836 30.1704Z" fill="#1A007F"/>
<path fill-rule="evenodd" clip-rule="evenodd" d="M46.2211 9.72009C45.5724 9.5902 44.9044 9.58939 44.2554 9.71771C43.6064 9.84604 42.989 10.101 42.4385 10.468C41.888 10.8349 41.4152 11.3068 41.0472 11.8565C40.6791 12.4063 40.4229 13.0232 40.2933 13.672C39.8097 16.0901 38.6766 18.3424 37.1152 20.2561L41.6958 29.9009C45.924 26.2323 49.0469 21.2372 50.1661 15.6479C50.7119 12.912 48.9432 10.259 46.2211 9.72009Z" fill="#FF9396"/>
<path fill-rule="evenodd" clip-rule="evenodd" d="M28.5769 25.7345C27.5958 25.9694 26.594 26.0937 25.5922 26.0937C24.8115 26.0937 24.0032 26.0039 23.1949 25.8312C19.8441 25.1196 16.4725 23.0469 14.5657 20.5252C14.089 19.8965 13.7021 19.2401 13.4326 18.57C12.3894 15.993 9.45312 14.7494 6.87611 15.7857C4.2991 16.8289 3.05551 19.7652 4.09184 22.3422C5.27325 25.2716 7.35973 27.9591 9.97819 30.17C12.5736 32.3578 15.5703 34.0192 18.8008 35.0614C21.0186 35.773 23.3192 36.1668 25.5853 36.1668C28.1002 36.1668 30.5804 35.7316 32.9433 34.9371L28.5769 25.7345Z" fill="#002DC8"/>
<path fill-rule="evenodd" clip-rule="evenodd" d="M44.1146 34.9716L41.6965 29.8867L37.1159 20.2488L37.109 20.2557C37.109 20.2557 37.109 20.2488 37.1159 20.2488L30.4558 6.23761C30.0469 5.37802 29.4029 4.65183 28.5984 4.14317C27.7938 3.63451 26.8616 3.36419 25.9097 3.36353C23.9683 3.36353 22.1997 4.48276 21.3637 6.23761L14.5723 20.5252C16.4791 23.0469 19.8506 25.1196 23.2014 25.8312L25.3985 21.216C25.6057 20.7808 26.2275 20.7808 26.4348 21.216L28.5834 25.7344L32.9568 34.9371L35.1054 39.4555C35.514 40.3167 36.1588 41.0442 36.9649 41.553C37.771 42.0619 38.7051 42.3312 39.6584 42.3295C40.1074 42.3295 40.5565 42.2674 40.9987 42.143C44.0317 41.307 45.4687 37.8181 44.1146 34.9716Z" fill="#FF536A"/>
</svg>
