<svg width="34" height="37" viewBox="0 0 34 37" fill="none" xmlns="http://www.w3.org/2000/svg">
<path d="M16.5483 0.182138C15.2049 0.188501 13.9227 0.302729 12.7938 0.502547C9.46876 1.08991 8.86548 2.31937 8.86548 4.58705V7.58146H16.7223V8.57959H5.91657C3.6333 8.57959 1.63385 9.95191 1.0083 12.5635C0.286665 15.556 0.254847 17.4238 1.0083 20.5486C1.56671 22.8749 2.90053 24.532 5.18412 24.532H7.8858V20.9422C7.8858 18.3487 10.1293 16.0613 12.7941 16.0613H20.642C22.8267 16.0613 24.5703 14.2623 24.5703 12.0688V4.58737C24.5703 2.45777 22.7739 0.858274 20.642 0.502865C19.2917 0.278229 17.8913 0.176092 16.5483 0.182138ZM12.2993 2.59046C13.1107 2.59046 13.7738 3.26405 13.7738 4.09259C13.7738 4.91764 13.111 5.58487 12.2993 5.58487C11.4848 5.58487 10.8252 4.91764 10.8252 4.09259C10.8248 3.26405 11.4848 2.59046 12.2993 2.59046Z" fill="url(#paint0_linear_8396_20423)"/>
<path d="M25.5497 8.57918V12.0684C25.5497 14.7729 23.2563 17.0495 20.6415 17.0495H12.7935C10.6439 17.0495 8.86523 18.8895 8.86523 21.0424V28.5244C8.86523 30.6534 10.7164 31.906 12.7935 32.5166C15.2804 33.2475 17.6655 33.3799 20.6415 32.5166C22.6193 31.9436 24.5697 30.7911 24.5697 28.5244V25.5297H16.7221V24.5312H28.4986C30.7819 24.5312 31.6334 22.9387 32.4275 20.5479C33.2478 18.0868 33.2125 15.7198 32.4275 12.5628C31.8631 10.2894 30.7854 8.57886 28.4986 8.57886H25.5497V8.57918ZM21.1356 27.526C21.9505 27.526 22.6101 28.1932 22.6101 29.0189C22.6101 29.8468 21.9501 30.5204 21.1356 30.5204C20.3242 30.5204 19.6615 29.8468 19.6615 29.0189C19.6615 28.1932 20.3242 27.526 21.1356 27.526Z" fill="url(#paint1_linear_8396_20423)"/>
<path opacity="0.444" d="M27.3395 34.3389C27.3395 35.4662 22.6253 36.3803 16.8105 36.3803C10.9954 36.3803 6.28125 35.4662 6.28125 34.3389C6.28125 33.2113 10.9951 32.2971 16.8105 32.2971C22.6253 32.2971 27.3395 33.2109 27.3395 34.3389Z" fill="url(#paint2_radial_8396_20423)"/>
<defs>
<linearGradient id="paint0_linear_8396_20423" x1="-0.332556" y1="1.11843" x2="17.7891" y2="16.5725" gradientUnits="userSpaceOnUse">
<stop stop-color="#5A9FD4"/>
<stop offset="1" stop-color="#306998"/>
</linearGradient>
<linearGradient id="paint1_linear_8396_20423" x1="24.6069" y1="26.1786" x2="18.1082" y2="17.0652" gradientUnits="userSpaceOnUse">
<stop stop-color="#FFD43B"/>
<stop offset="1" stop-color="#FFE873"/>
</linearGradient>
<radialGradient id="paint2_radial_8396_20423" cx="0" cy="0" r="1" gradientUnits="userSpaceOnUse" gradientTransform="translate(16.768 34.2804) rotate(-90) scale(2.04219 8.97714)">
<stop stop-color="#B8B8B8" stop-opacity="0.498"/>
<stop offset="1" stop-color="#7F7F7F" stop-opacity="0"/>
</radialGradient>
</defs>
</svg>
