<svg width="48" height="48" viewBox="0 0 48 48" fill="none" xmlns="http://www.w3.org/2000/svg">
<path d="M24.0467 46.9967C36.6985 46.9967 46.9548 36.7405 46.9548 24.0887C46.9548 11.4369 36.6985 1.18066 24.0467 1.18066C11.395 1.18066 1.13867 11.4369 1.13867 24.0887C1.13867 36.7405 11.395 46.9967 24.0467 46.9967Z" fill="#FBFBFC"/>
<path d="M38.6244 28.2532C38.6244 20.2018 32.0978 13.6748 24.0468 13.6748C15.9958 13.6748 9.46875 20.2018 9.46875 28.2532H13.6336C13.6336 22.5021 18.296 17.8404 24.0464 17.8404C29.7972 17.8404 34.4592 22.5021 34.4592 28.2532" fill="black" fill-opacity="0.1"/>
<path d="M25.0893 34.9179C29.4599 34.9179 33.0029 31.3749 33.0029 27.0044C33.0029 22.6338 29.4599 19.0908 25.0893 19.0908C20.7188 19.0908 17.1758 22.6338 17.1758 27.0044C17.1758 31.3749 20.7188 34.9179 25.0893 34.9179Z" fill="black" fill-opacity="0.1"/>
<path d="M24.0463 32.6267C28.7619 32.6267 32.5847 28.8039 32.5847 24.0883C32.5847 19.3726 28.7619 15.5498 24.0463 15.5498C19.3306 15.5498 15.5078 19.3726 15.5078 24.0883C15.5078 28.8039 19.3306 32.6267 24.0463 32.6267Z" fill="url(#paint0_linear_8396_20200)"/>
<path d="M44.8723 13.6755C39.1392 2.14016 25.1403 -2.5632 13.6046 3.16991C10.0077 4.95759 6.93351 7.64387 4.67969 10.9685L14.0515 27.2121C12.3251 21.7269 15.3738 15.8803 20.859 14.1543C21.8238 13.8507 22.8277 13.6895 23.839 13.6759" fill="url(#paint1_linear_8396_20200)"/>
<path d="M4.67948 10.9685C-2.49348 21.6686 0.365941 36.1569 11.0657 43.3298C14.3762 45.5489 18.2 46.8831 22.1725 47.2051L31.9604 30.5447C28.3007 34.9803 21.738 35.6093 17.302 31.9492C15.7954 30.7066 14.6688 29.0651 14.0509 27.2125" fill="url(#paint2_linear_8396_20200)"/>
<path d="M22.1719 47.2053C35.0171 48.1761 46.2171 38.5501 47.1882 25.7052C47.5016 21.5606 46.7017 17.4076 44.8711 13.676H23.8382C29.5886 13.7023 34.2296 18.3858 34.2025 24.1365C34.192 26.4632 33.4024 28.7194 31.9598 30.5449" fill="url(#paint3_linear_8396_20200)"/>
<path d="M4.67969 10.9684L14.0515 27.212C13.3571 24.8759 13.5042 22.3702 14.4672 20.1314L5.09579 10.3435" fill="url(#paint4_linear_8396_20200)"/>
<path d="M22.1727 47.2044L31.9606 30.5439C30.4162 32.3855 28.2824 33.6361 25.9211 34.0839L21.7559 47.2044" fill="url(#paint5_linear_8396_20200)"/>
<path d="M44.8712 13.6748H23.8379C25.4019 13.6821 26.9442 14.0416 28.3502 14.7267C29.7562 15.4118 30.9898 16.4048 31.9595 17.632L45.2881 14.2997" fill="url(#paint6_linear_8396_20200)"/>
<defs>
<linearGradient id="paint0_linear_8396_20200" x1="24.0512" y1="15.5363" x2="24.0512" y2="32.6275" gradientUnits="userSpaceOnUse">
<stop stop-color="#81B4E0"/>
<stop offset="1" stop-color="#0C5A94"/>
</linearGradient>
<linearGradient id="paint1_linear_8396_20200" x1="24.776" y1="0.763779" x2="24.776" y2="19.715" gradientUnits="userSpaceOnUse">
<stop stop-color="#F06B59"/>
<stop offset="1" stop-color="#DF2227"/>
</linearGradient>
<linearGradient id="paint2_linear_8396_20200" x1="6.40212" y1="40.6676" x2="15.9816" y2="24.8405" gradientUnits="userSpaceOnUse">
<stop stop-color="#388B41"/>
<stop offset="1" stop-color="#4CB749"/>
</linearGradient>
<linearGradient id="paint3_linear_8396_20200" x1="38.4921" y1="42.351" x2="28.2877" y2="17.777" gradientUnits="userSpaceOnUse">
<stop stop-color="#E4B022"/>
<stop offset="0.3" stop-color="#FCD209"/>
</linearGradient>
<linearGradient id="paint4_linear_8396_20200" x1="9.57345" y1="26.5874" x2="9.57345" y2="9.9274" gradientUnits="userSpaceOnUse">
<stop stop-opacity="0.15"/>
<stop offset="0.3" stop-opacity="0.06"/>
<stop offset="1" stop-opacity="0.03"/>
</linearGradient>
<linearGradient id="paint5_linear_8396_20200" x1="32.5694" y1="31.9665" x2="21.1156" y2="43.6288" gradientUnits="userSpaceOnUse">
<stop stop-opacity="0.15"/>
<stop offset="0.3" stop-opacity="0.06"/>
<stop offset="1" stop-opacity="0.03"/>
</linearGradient>
<linearGradient id="paint6_linear_8396_20200" x1="32.4023" y1="35.3236" x2="34.0686" y2="18.8709" gradientUnits="userSpaceOnUse">
<stop stop-opacity="0.15"/>
<stop offset="0.3" stop-opacity="0.06"/>
<stop offset="1" stop-opacity="0.03"/>
</linearGradient>
</defs>
</svg>
