<svg width="48" height="48" viewBox="0 0 48 48" fill="none" xmlns="http://www.w3.org/2000/svg">
<path d="M46.8452 23.4251L44.8987 22.2191V21.6479L46.5701 20.0823C46.6542 20.0015 46.7173 19.9016 46.7542 19.791C46.791 19.6804 46.8005 19.5626 46.7817 19.4475C46.7555 19.3384 46.7033 19.2372 46.6297 19.1525C46.556 19.0678 46.463 19.0021 46.3586 18.9609L44.2428 18.157C44.1628 17.9816 44.0709 17.812 43.9678 17.6492L45.3219 15.7874C45.3738 15.6859 45.401 15.5735 45.401 15.4594C45.401 15.3454 45.3738 15.233 45.3219 15.1315C45.2792 15.0263 45.2101 14.9339 45.121 14.8635C45.032 14.793 44.9263 14.7469 44.8141 14.7295L42.5503 14.3487C42.5503 14.1794 42.381 14.0102 42.2752 13.8409L43.2273 11.7252C43.2803 11.6214 43.3046 11.5054 43.2979 11.389C43.2911 11.2727 43.2535 11.1602 43.1888 11.0633C43.1242 10.9663 43.0349 10.8883 42.9301 10.8373C42.8253 10.7863 42.7088 10.7642 42.5926 10.7732H40.3076L39.9268 10.3289L40.4557 8.08623C40.4857 7.9749 40.4859 7.85764 40.4561 7.74625C40.4264 7.63486 40.3678 7.53328 40.2862 7.45175C40.2047 7.37023 40.1031 7.31163 39.9917 7.28188C39.8804 7.25212 39.7631 7.25225 39.6518 7.28226L37.4091 7.81118C37.2706 7.67989 37.1221 7.55964 36.9648 7.45151V5.1454C36.9703 5.02955 36.946 4.91424 36.8941 4.81051C36.8423 4.70678 36.7646 4.61811 36.6686 4.553C36.5689 4.49544 36.4558 4.46513 36.3407 4.46513C36.2256 4.46513 36.1125 4.49544 36.0128 4.553L33.8971 5.50507L33.3893 5.23003L33.1989 3.00854C33.1815 2.89635 33.1354 2.79058 33.0649 2.70158C32.9945 2.61257 32.9021 2.54338 32.7969 2.50077C32.6954 2.44878 32.583 2.42167 32.469 2.42167C32.3549 2.42167 32.2425 2.44878 32.141 2.50077L30.2369 3.91829L29.6868 3.74904L28.8828 1.63333C28.8417 1.52888 28.776 1.43588 28.6913 1.36222C28.6066 1.28856 28.5054 1.23641 28.3962 1.21019C28.2812 1.1914 28.1634 1.20084 28.0528 1.2377C27.9422 1.27455 27.8423 1.33772 27.7615 1.42176L26.1959 3.09317H25.6247L24.461 1.04094C24.3999 0.944821 24.3155 0.865687 24.2156 0.810863C24.1158 0.756038 24.0037 0.727295 23.8898 0.727295C23.7759 0.727295 23.6638 0.756038 23.5639 0.810863C23.4641 0.865687 23.3797 0.944821 23.3185 1.04094L22.1126 2.98738H21.5414L19.9757 1.37945C19.8978 1.29664 19.8003 1.23479 19.6922 1.1996C19.5841 1.1644 19.4689 1.15701 19.3571 1.17809C19.2454 1.19917 19.1408 1.24805 19.0529 1.32021C18.9651 1.39238 18.8968 1.48551 18.8544 1.59102L18.0504 3.70672L17.5427 3.91829L15.6385 2.56424C15.5448 2.49822 15.4358 2.45711 15.3217 2.44477C15.2077 2.43242 15.0924 2.44924 14.9867 2.49365C14.8809 2.53806 14.7882 2.60861 14.7172 2.69867C14.6462 2.78873 14.5992 2.89536 14.5807 3.00854L14.1999 5.27234L13.6921 5.54738L11.5764 4.59532C11.4767 4.53775 11.3636 4.50745 11.2485 4.50745C11.1333 4.50745 11.0202 4.53775 10.9205 4.59532C10.8246 4.66042 10.7469 4.74909 10.695 4.85282C10.6432 4.95655 10.6188 5.07187 10.6243 5.18771V7.49383L10.18 7.8535L8.06434 7.36689C7.95301 7.33688 7.83575 7.33675 7.72436 7.3665C7.61297 7.39626 7.51139 7.45486 7.42986 7.53638C7.34834 7.61791 7.28974 7.71949 7.25999 7.83088C7.23023 7.94227 7.23036 8.05953 7.26037 8.17085L7.78929 10.4135L7.42962 10.8578H5.12351C5.00766 10.8523 4.89235 10.8766 4.78862 10.9285C4.68489 10.9804 4.59622 11.058 4.53111 11.154C4.47355 11.2537 4.44324 11.3668 4.44324 11.4819C4.44324 11.5971 4.47355 11.7102 4.53111 11.8099L5.48318 13.9256L5.20814 14.4333L2.90202 14.6872C2.78983 14.7045 2.68406 14.7507 2.59506 14.8212C2.50606 14.8916 2.43686 14.984 2.39425 15.0892C2.34227 15.1907 2.31515 15.3031 2.31515 15.4171C2.31515 15.5312 2.34227 15.6436 2.39425 15.7451L3.81177 17.6492C3.74294 17.8285 3.68639 18.0123 3.64252 18.1993L1.52681 19.0033C1.42236 19.0444 1.32936 19.1101 1.2557 19.1948C1.18204 19.2795 1.12989 19.3807 1.10367 19.4899C1.08488 19.6049 1.09432 19.7227 1.13118 19.8333C1.16803 19.9439 1.2312 20.0438 1.31524 20.1246L2.98665 21.6902V22.2614L1.0402 23.4674C0.944089 23.5285 0.864955 23.6129 0.81013 23.7128C0.755306 23.8126 0.726562 23.9247 0.726562 24.0386C0.726562 24.1525 0.755306 24.2646 0.81013 24.3645C0.864955 24.4643 0.944089 24.5487 1.0402 24.6099L2.98665 25.8158V26.3871L1.31524 27.9527C1.2312 28.0334 1.16803 28.1334 1.13118 28.2439C1.09432 28.3545 1.08488 28.4724 1.10367 28.5874C1.12989 28.6965 1.18204 28.7978 1.2557 28.8825C1.32936 28.9672 1.42236 29.0329 1.52681 29.074L3.64252 29.878C3.68639 30.065 3.74294 30.2487 3.81177 30.428L2.45772 32.2899C2.40574 32.3914 2.37863 32.5038 2.37863 32.6178C2.37863 32.7318 2.40574 32.8442 2.45772 32.9457C2.50034 33.0509 2.56953 33.1433 2.65853 33.2138C2.74754 33.2842 2.8533 33.3304 2.96549 33.3477L5.22929 33.7285L5.50434 34.2363L4.55227 36.352C4.4947 36.4517 4.4644 36.5648 4.4644 36.68C4.4644 36.7951 4.4947 36.9082 4.55227 37.0079C4.61737 37.1039 4.70604 37.1815 4.80977 37.2334C4.91351 37.2852 5.02882 37.3096 5.14467 37.3041H7.45078C7.55891 37.4613 7.67916 37.6099 7.81045 37.7484L7.28153 39.991C7.25152 40.1023 7.25139 40.2196 7.28114 40.331C7.3109 40.4424 7.36949 40.544 7.45102 40.6255C7.53255 40.707 7.63412 40.7656 7.74551 40.7954C7.8569 40.8251 7.97417 40.825 8.08549 40.795L10.3281 40.2661L10.7724 40.6257V42.9319C10.7669 43.0477 10.7913 43.163 10.8431 43.2667C10.895 43.3705 10.9727 43.4591 11.0686 43.5242C11.1683 43.5818 11.2814 43.6121 11.3966 43.6121C11.5117 43.6121 11.6248 43.5818 11.7245 43.5242L13.8402 42.5722L14.348 42.8472L14.7288 45.111C14.7461 45.2232 14.7923 45.329 14.8627 45.418C14.9332 45.507 15.0256 45.5762 15.1308 45.6188C15.2323 45.6708 15.3447 45.6979 15.4587 45.6979C15.5728 45.6979 15.6852 45.6708 15.7866 45.6188L17.5427 44.0743L18.0928 44.2436L18.8967 46.3593C18.9379 46.4637 19.0035 46.5567 19.0883 46.6304C19.173 46.7041 19.2742 46.7562 19.3833 46.7824C19.4984 46.8012 19.6162 46.7918 19.7268 46.7549C19.8374 46.7181 19.9373 46.6549 20.0181 46.5709L21.5837 44.8995H22.1549L23.3609 46.8459C23.422 46.942 23.5064 47.0211 23.6063 47.076C23.7061 47.1308 23.8182 47.1595 23.9321 47.1595C24.046 47.1595 24.1581 47.1308 24.2579 47.076C24.3578 47.0211 24.4422 46.942 24.5033 46.8459L25.7093 44.8995H26.2805L27.8462 46.5709C27.9269 46.6549 28.0268 46.7181 28.1374 46.7549C28.248 46.7918 28.3658 46.8012 28.4809 46.7824C28.59 46.7562 28.6912 46.7041 28.7759 46.6304C28.8607 46.5567 28.9264 46.4637 28.9675 46.3593L29.7714 44.2436L30.3215 44.0743L32.1833 45.4284C32.2848 45.4804 32.3972 45.5075 32.5113 45.5075C32.6253 45.5075 32.7377 45.4804 32.8392 45.4284C32.9444 45.3858 33.0368 45.3166 33.1072 45.2276C33.1777 45.1386 33.2239 45.0328 33.2412 44.9206L33.622 42.6568L34.1298 42.3818L36.2455 43.3338C36.3452 43.3914 36.4583 43.4217 36.5734 43.4217C36.6886 43.4217 36.8017 43.3914 36.9014 43.3338C36.9973 43.2687 37.075 43.1801 37.1268 43.0763C37.1787 42.9726 37.2031 42.8573 37.1976 42.7414V40.4353C37.3548 40.3272 37.5034 40.2069 37.6419 40.0757L39.8845 40.6046C39.9958 40.6346 40.1131 40.6347 40.2245 40.605C40.3359 40.5752 40.4374 40.5166 40.519 40.4351C40.6005 40.3536 40.6591 40.252 40.6889 40.1406C40.7186 40.0292 40.7185 39.9119 40.6885 39.8006L40.1595 37.558L40.5404 37.1137H42.8253C42.9415 37.1226 43.058 37.1005 43.1628 37.0495C43.2676 36.9985 43.3569 36.9205 43.4216 36.8236C43.4862 36.7266 43.5239 36.6141 43.5306 36.4978C43.5374 36.3815 43.513 36.2654 43.46 36.1616L42.508 34.0459C42.6138 33.8766 42.6984 33.7074 42.783 33.5381L45.0468 33.1573C45.159 33.14 45.2648 33.0938 45.3538 33.0234C45.4428 32.9529 45.512 32.8605 45.5546 32.7553C45.6066 32.6538 45.6337 32.5414 45.6337 32.4274C45.6337 32.3133 45.6066 32.2009 45.5546 32.0995L43.9678 30.3434C44.0366 30.1641 44.0932 29.9803 44.1371 29.7933L46.2528 28.9894C46.3572 28.9482 46.4502 28.8825 46.5239 28.7978C46.5975 28.7131 46.6497 28.6119 46.6759 28.5028C46.6947 28.3877 46.6853 28.2699 46.6484 28.1593C46.6115 28.0487 46.5484 27.9488 46.4643 27.868L44.7929 26.3024V25.7312L46.7394 24.5252C46.8355 24.4641 46.9146 24.3797 46.9694 24.2798C47.0243 24.18 47.053 24.0679 47.053 23.954C47.053 23.8401 47.0243 23.728 46.9694 23.6282C46.9146 23.5283 46.8355 23.4439 46.7394 23.3828L46.8452 23.4251ZM33.7701 39.6314C33.411 39.5556 33.0967 39.3403 32.8963 39.0328C32.6959 38.7253 32.6259 38.3508 32.7017 37.9917C32.7774 37.6326 32.9927 37.3183 33.3002 37.1179C33.6077 36.9175 33.9822 36.8475 34.3414 36.9233C34.6991 37.0043 35.0106 37.2228 35.2085 37.5316C35.4065 37.8404 35.475 38.2146 35.3992 38.5735C35.3641 38.7512 35.2937 38.92 35.1922 39.07C35.0907 39.22 34.9601 39.3481 34.8083 39.4468C34.6563 39.5454 34.4862 39.6125 34.3079 39.6443C34.1296 39.676 33.9467 39.6716 33.7701 39.6314ZM33.0931 35.1461C32.9319 35.1121 32.7656 35.1103 32.6037 35.1409C32.4418 35.1715 32.2876 35.2338 32.1499 35.3243C32.0123 35.4147 31.8939 35.5316 31.8015 35.668C31.7092 35.8045 31.6449 35.9578 31.6121 36.1193L30.9139 39.3563C28.7118 40.3757 26.3163 40.9096 23.8898 40.9219C21.4145 40.9203 18.9684 40.3863 16.7176 39.3563L16.0194 36.0558C15.9893 35.893 15.9266 35.738 15.835 35.6C15.7435 35.4621 15.6249 35.3441 15.4866 35.2532C15.3482 35.1622 15.1929 35.1002 15.0299 35.0709C14.867 35.0416 14.6998 35.0456 14.5384 35.0826L11.6822 35.6961C11.1487 35.1455 10.6539 34.5588 10.2012 33.9401H24.1014C24.2706 33.9401 24.3552 33.9401 24.3552 33.7709V28.8624C24.3552 28.7143 24.3552 28.6932 24.1014 28.6932H20.0392V25.5619H24.4399C25.0951 25.5735 25.7253 25.815 26.2204 26.2443C26.7155 26.6737 27.0438 27.2634 27.148 27.9104C27.3172 28.6085 27.6981 30.83 27.9519 31.5494C28.2058 32.2687 29.2848 33.9401 30.4273 33.9401H37.5995C37.1123 34.589 36.5896 35.2106 36.0339 35.8019L33.0931 35.1461ZM13.8614 39.5679C13.6848 39.6081 13.5019 39.6125 13.3236 39.5808C13.1453 39.5491 12.9751 39.4819 12.8232 39.3833C12.6713 39.2846 12.5408 39.1565 12.4393 39.0065C12.3378 38.8565 12.2674 38.6877 12.2323 38.51C12.1919 38.3321 12.1873 38.148 12.2187 37.9683C12.2502 37.7886 12.3171 37.6169 12.4156 37.4634C12.514 37.3098 12.6421 37.1773 12.7922 37.0737C12.9423 36.9701 13.1116 36.8974 13.2901 36.8598C13.6492 36.784 14.0237 36.854 14.3312 37.0544C14.6387 37.2548 14.854 37.5691 14.9298 37.9282C15.0055 38.2873 14.9355 38.6618 14.7352 38.9693C14.5348 39.2768 14.2205 39.4921 13.8614 39.5679ZM8.59326 18.1781C8.70331 18.4266 8.73727 18.7021 8.69087 18.9699C8.64447 19.2376 8.51978 19.4856 8.33254 19.6826C8.1453 19.8795 7.90391 20.0166 7.63884 20.0764C7.37377 20.1363 7.0969 20.1163 6.84319 20.019C6.58948 19.9216 6.3703 19.7513 6.21332 19.5294C6.05634 19.3076 5.9686 19.0443 5.96117 18.7726C5.95374 18.501 6.02696 18.2332 6.17158 18.0032C6.3162 17.7731 6.52575 17.591 6.77376 17.4799C6.93857 17.403 7.11719 17.36 7.29897 17.3536C7.48075 17.3472 7.66196 17.3775 7.83178 17.4426C8.0016 17.5078 8.15655 17.6065 8.28738 17.7329C8.41821 17.8592 8.52224 18.0107 8.59326 18.1781ZM6.96417 22.0287L9.94731 20.6958C10.1002 20.6295 10.2382 20.5332 10.3532 20.4126C10.4682 20.2921 10.558 20.1497 10.6171 19.994C10.6763 19.8382 10.7037 19.6721 10.6976 19.5056C10.6916 19.3391 10.6523 19.1755 10.582 19.0244L9.96847 17.6492H12.3804V28.5239H7.51425C6.93863 26.4101 6.75224 24.2092 6.96417 22.0287ZM20.0392 20.9709V17.755H25.7728C26.069 17.755 27.8885 18.0935 27.8885 19.4475C27.8885 20.8016 26.5133 20.9709 25.3919 20.9709H20.0392ZM40.8154 23.8482C40.8154 24.2714 40.8154 24.6945 40.8154 25.1176H39.1228C38.9324 25.1176 38.869 25.2234 38.869 25.3927V26.112C38.869 27.995 37.8111 28.4181 36.8802 28.5239C35.9493 28.6297 34.9972 28.1431 34.8703 27.593C34.81 26.6531 34.5273 25.7409 34.0455 24.9317C33.5636 24.1225 32.8964 23.4393 32.0987 22.9385C33.0334 22.4792 33.8408 21.7971 34.4495 20.9522C35.0583 20.1072 35.4499 19.1255 35.5896 18.0935C35.5532 17.1832 35.2903 16.2964 34.8248 15.5132C34.3594 14.73 33.706 14.0753 32.9238 13.6082C31.8261 12.9017 30.5664 12.4866 29.2637 12.4023H11.1956C13.706 9.62749 17.0585 7.75427 20.7374 7.07069L22.8531 9.31333C22.971 9.43168 23.1112 9.52558 23.2655 9.58965C23.4198 9.65372 23.5852 9.6867 23.7523 9.6867C23.9193 9.6867 24.0848 9.65372 24.2391 9.58965C24.3934 9.52558 24.5335 9.43168 24.6514 9.31333L27.021 7.07069C29.4559 7.52951 31.7618 8.51279 33.7785 9.95227C35.7953 11.3917 37.4745 13.2529 38.6997 15.4066L37.0706 19.0879C37.0003 19.239 36.961 19.4026 36.955 19.5691C36.949 19.7356 36.9763 19.9017 37.0355 20.0574C37.0947 20.2132 37.1844 20.3556 37.2994 20.4761C37.4145 20.5966 37.5525 20.6929 37.7053 20.7593L40.8366 22.1556C40.8618 22.7198 40.8547 23.2849 40.8154 23.8482ZM22.7685 5.23003C23.03 4.97034 23.3837 4.82461 23.7523 4.82461C24.1209 4.82461 24.4745 4.97034 24.7361 5.23003C24.864 5.35776 24.9655 5.50946 25.0348 5.67646C25.104 5.84345 25.1397 6.02246 25.1397 6.20325C25.1397 6.38404 25.104 6.56305 25.0348 6.73004C24.9655 6.89704 24.864 7.04874 24.7361 7.17647C24.4745 7.43616 24.1209 7.58189 23.7523 7.58189C23.3837 7.58189 23.03 7.43616 22.7685 7.17647C22.6459 7.04326 22.5509 6.88717 22.4888 6.71714C22.4267 6.54712 22.3988 6.36651 22.4066 6.18568C22.4145 6.00484 22.458 5.82734 22.5346 5.66335C22.6112 5.49936 22.7194 5.3521 22.8531 5.23003H22.7685ZM38.9536 18.2416C39.0363 18.0799 39.1502 17.9361 39.2888 17.8187C39.4274 17.7012 39.5879 17.6124 39.761 17.5573C39.9341 17.5022 40.1164 17.482 40.2974 17.4977C40.4784 17.5135 40.6544 17.565 40.8154 17.6492C41.0634 17.7603 41.273 17.9423 41.4176 18.1724C41.5622 18.4025 41.6354 18.6702 41.628 18.9419C41.6206 19.2135 41.5328 19.4769 41.3758 19.6987C41.2189 19.9205 40.9997 20.0909 40.746 20.1882C40.4923 20.2856 40.2154 20.3056 39.9503 20.2457C39.6853 20.1858 39.4439 20.0488 39.2566 19.8518C39.0694 19.6549 38.9447 19.4069 38.8983 19.1391C38.8519 18.8714 38.8859 18.5959 38.9959 18.3474L38.9536 18.2416Z" fill="#0F0518"/>
</svg>
