<svg width="48" height="48" viewBox="0 0 48 48" fill="none" xmlns="http://www.w3.org/2000/svg">
<path opacity="0.53" d="M46.2035 25.7985C46.2035 37.6564 36.222 47.273 23.9211 47.273C11.6201 47.273 1.63867 37.6564 1.63867 25.7985C1.63867 13.9406 11.6201 4.32397 23.9211 4.32397C36.222 4.32397 46.2035 13.9406 46.2035 25.7985Z" fill="#0F0518"/>
<path d="M47.0368 23.8953C47.0368 36.6654 36.6644 47.0378 23.8944 47.0378C11.1243 47.0378 0.751953 36.6654 0.751953 23.8953C0.751953 11.1253 11.1243 0.75293 23.8944 0.75293C36.6905 0.75293 47.0368 11.1253 47.0368 23.8953Z" fill="url(#paint0_linear_8396_20272)" stroke="#CDCDCD" stroke-width="0.2637" stroke-miterlimit="11.3386" stroke-linecap="round" stroke-linejoin="round"/>
<path d="M45.2398 23.895C45.2398 35.6747 35.7014 45.2132 23.9217 45.2132C12.1419 45.2132 2.60352 35.6747 2.60352 23.895C2.60352 12.1153 12.1419 2.5769 23.9217 2.5769C35.6753 2.5769 45.2398 12.1153 45.2398 23.895Z" fill="url(#paint1_radial_8396_20272)"/>
<path d="M23.8948 3.69897C23.7123 3.69897 23.582 3.82928 23.582 4.01171V7.60817C23.582 7.7906 23.7123 7.9209 23.8948 7.9209C24.0772 7.9209 24.2075 7.7906 24.2075 7.60817V4.01171C24.2075 3.82928 24.0772 3.69897 23.8948 3.69897ZM21.862 3.82928C21.8359 3.82928 21.8099 3.82928 21.8099 3.82928C21.6274 3.85534 21.5232 4.01171 21.5232 4.16808L21.6796 5.67963C21.7056 5.86206 21.862 5.96631 22.0184 5.96631C22.2008 5.94024 22.305 5.78388 22.305 5.62751L22.1487 4.11596C22.1226 3.93353 22.0184 3.82928 21.862 3.82928ZM25.9536 3.82928C25.7972 3.85534 25.693 3.95959 25.6669 4.11596L25.5106 5.62751C25.4845 5.80994 25.6148 5.94024 25.7972 5.96631C25.9797 5.99237 26.11 5.86206 26.136 5.67963L26.2924 4.16808C26.3185 3.98565 26.1882 3.85534 26.0057 3.82928C25.9797 3.80322 25.9797 3.80322 25.9536 3.82928ZM19.7771 4.11596C19.751 4.11596 19.725 4.11596 19.725 4.11596C19.5686 4.14202 19.4383 4.32445 19.4904 4.48081L20.2462 7.99909C20.2722 8.15545 20.4547 8.28576 20.611 8.23364C20.7674 8.20758 20.8977 8.02515 20.8456 7.86878L20.0898 4.37657C20.0638 4.2202 19.9334 4.11596 19.7771 4.11596ZM28.0385 4.11596C27.8821 4.11596 27.7518 4.2202 27.7258 4.35051L26.97 7.86878C26.9439 8.02515 27.0482 8.20758 27.2045 8.23364C27.3609 8.2597 27.5433 8.15545 27.5694 7.99909L28.3252 4.48081C28.3512 4.32445 28.247 4.14202 28.0906 4.11596C28.0906 4.11596 28.0646 4.11596 28.0385 4.11596ZM17.7964 4.6893C17.7443 4.6893 17.7182 4.6893 17.6661 4.71536C17.5097 4.76749 17.4055 4.94992 17.4576 5.10628L17.9267 6.53965C17.9789 6.69602 18.1613 6.80027 18.3176 6.74814C18.474 6.69602 18.5783 6.51359 18.5261 6.35723L18.057 4.89779C18.0049 4.76749 17.9007 4.6893 17.7964 4.6893ZM30.0192 4.6893C29.8889 4.6893 29.7846 4.76749 29.7586 4.89779L29.2895 6.33116C29.2373 6.48753 29.3155 6.66996 29.4979 6.72208C29.6543 6.77421 29.8367 6.69602 29.8889 6.51359L30.358 5.08022C30.4101 4.92386 30.3319 4.74143 30.1495 4.6893C30.0974 4.6893 30.0713 4.6893 30.0192 4.6893ZM15.8158 5.39296C15.7636 5.39296 15.7376 5.39296 15.6855 5.41902C15.5291 5.4972 15.4509 5.67963 15.5291 5.836L16.9885 9.11972C17.0667 9.27609 17.2491 9.35427 17.4055 9.27609C17.5619 9.19791 17.6401 9.01548 17.5619 8.85911L16.1024 5.60145C16.0503 5.47114 15.92 5.39296 15.8158 5.39296ZM32.0259 5.41902C31.8956 5.41902 31.7913 5.4972 31.7392 5.60145L30.2798 8.88517C30.2016 9.04154 30.2798 9.22397 30.4361 9.30215C30.5925 9.38033 30.7749 9.30215 30.8531 9.14578L32.3126 5.86206C32.3907 5.70569 32.3126 5.52326 32.1562 5.44508C32.1041 5.41902 32.0519 5.41902 32.0259 5.41902ZM13.9915 6.38329C13.9394 6.38329 13.8612 6.38329 13.809 6.43541C13.6527 6.51359 13.6006 6.72208 13.7048 6.85239L14.4606 8.15545C14.5388 8.31182 14.7473 8.36394 14.8776 8.2597C15.0339 8.18152 15.0861 7.97302 14.9818 7.84272L14.226 6.53965C14.1739 6.43541 14.0697 6.38329 13.9915 6.38329ZM33.8241 6.38329C33.7199 6.38329 33.6417 6.43541 33.5896 6.53965L32.8338 7.84272C32.7556 7.99909 32.8077 8.18152 32.938 8.2597C33.0944 8.33788 33.2768 8.28576 33.355 8.15545L34.1108 6.85239C34.189 6.69602 34.1369 6.51359 34.0065 6.43541C33.9544 6.38329 33.8762 6.35723 33.8241 6.38329ZM12.1932 7.47786C12.1411 7.47786 12.0629 7.50392 12.0108 7.52998C11.8805 7.63423 11.8284 7.81666 11.9326 7.97302L14.0436 10.8658C14.1478 10.9961 14.3303 11.0483 14.4866 10.944C14.6169 10.8398 14.6691 10.6573 14.5648 10.501L12.4539 7.60817C12.4017 7.52998 12.2975 7.47786 12.1932 7.47786ZM35.6223 7.50392C35.5181 7.50392 35.4139 7.55604 35.3617 7.63423L33.2508 10.527C33.1465 10.6573 33.1726 10.8658 33.329 10.9701C33.4593 11.0743 33.6677 11.0483 33.772 10.8919L35.883 7.99909C35.9872 7.86878 35.9611 7.66029 35.8048 7.55604C35.7527 7.52998 35.6745 7.50392 35.6223 7.50392ZM10.6035 8.80699C10.5253 8.80699 10.4471 8.83305 10.369 8.88517C10.2386 8.98941 10.2386 9.19791 10.3429 9.32821L11.3593 10.4488C11.4635 10.5792 11.672 10.5792 11.8023 10.4749C11.9326 10.3707 11.9326 10.1622 11.8284 10.0319L10.812 8.91123C10.7599 8.85911 10.6817 8.80699 10.6035 8.80699ZM37.186 8.80699C37.1078 8.80699 37.0297 8.83305 36.9775 8.91123L35.9611 10.0319C35.8569 10.1622 35.8569 10.3446 35.9872 10.4749C36.1175 10.5792 36.2999 10.5792 36.4302 10.4488L37.4466 9.32821C37.5509 9.19791 37.5509 9.01548 37.4206 8.88517C37.3424 8.83305 37.2642 8.80699 37.186 8.80699ZM9.09195 10.2664C9.01377 10.2664 8.93559 10.2925 8.88346 10.3707C8.77922 10.501 8.77922 10.6834 8.90952 10.8137L11.5678 13.2113C11.6981 13.3156 11.8805 13.3156 12.0108 13.1853C12.1151 13.055 12.1151 12.8725 11.9848 12.7422L9.3265 10.3446C9.24832 10.2925 9.17014 10.2664 9.09195 10.2664ZM38.7236 10.2925C38.6455 10.2925 38.5673 10.3185 38.4891 10.3707L35.8308 12.7683C35.7005 12.8725 35.7005 13.081 35.8048 13.2113C35.909 13.3416 36.1175 13.3416 36.2478 13.2374L38.9061 10.8398C39.0364 10.7355 39.0364 10.527 38.9321 10.3967C38.88 10.3185 38.8018 10.2925 38.7236 10.2925ZM7.81495 11.9083C7.7107 11.9083 7.60646 11.9604 7.55434 12.0386C7.45009 12.1689 7.47615 12.3774 7.63252 12.4816L8.8574 13.3677C8.98771 13.472 9.1962 13.4459 9.30044 13.2895C9.40469 13.1592 9.37863 12.9507 9.22226 12.8465L7.99738 11.9604C7.94526 11.9343 7.89313 11.9083 7.81495 11.9083ZM39.9746 11.9083C39.9225 11.9083 39.8443 11.9343 39.7922 11.9604L38.5673 12.8465C38.437 12.9507 38.3848 13.1332 38.4891 13.2895C38.5933 13.4198 38.7758 13.472 38.9321 13.3677L40.157 12.4816C40.2873 12.3774 40.3394 12.195 40.2352 12.0386C40.1831 11.9604 40.0788 11.9083 39.9746 11.9083ZM6.64219 13.6283C6.53795 13.6283 6.45976 13.6804 6.40764 13.7847C6.32946 13.9411 6.38158 14.1235 6.51189 14.2017L9.61318 15.9999C9.76955 16.0781 9.95198 16.026 10.0302 15.8957C10.1083 15.7393 10.0562 15.5569 9.92591 15.4787L6.82462 13.6804C6.7725 13.6544 6.69431 13.6283 6.64219 13.6283ZM41.1734 13.6283C41.1213 13.6283 41.0431 13.6283 40.991 13.6804L37.8897 15.4787C37.7333 15.5569 37.6812 15.7653 37.7854 15.8957C37.8636 16.052 38.0721 16.1041 38.2024 15.9999L41.3037 14.2017C41.4601 14.1235 41.5122 13.915 41.408 13.7847C41.3558 13.7065 41.2516 13.6544 41.1734 13.6283ZM5.75611 15.5047C5.6258 15.5047 5.52156 15.5829 5.46943 15.6872C5.39125 15.8435 5.46943 16.026 5.6258 16.1041L7.00705 16.7296C7.16342 16.8078 7.34585 16.7296 7.42403 16.5732C7.50221 16.4169 7.42403 16.2345 7.26766 16.1563L5.88641 15.5308C5.83429 15.5047 5.78217 15.5047 5.75611 15.5047ZM42.0595 15.5047C42.0074 15.5047 41.9813 15.5047 41.9292 15.5308L40.5479 16.1563C40.3916 16.2345 40.3134 16.4169 40.3916 16.5732C40.4697 16.7296 40.6522 16.8078 40.8085 16.7296L42.1898 16.1041C42.3462 16.026 42.4243 15.8435 42.3462 15.6872C42.294 15.5829 42.1898 15.5047 42.0595 15.5047ZM4.94821 17.4333C4.8179 17.4333 4.71366 17.5115 4.68759 17.6418C4.63547 17.7981 4.71366 17.9806 4.89609 18.0327L8.28405 19.1533C8.44042 19.2054 8.62285 19.1273 8.67497 18.9448C8.72709 18.7885 8.64891 18.606 8.46648 18.5539L5.05245 17.4333C5.02639 17.4333 5.00033 17.4333 4.94821 17.4333ZM42.8674 17.4333C42.8153 17.4333 42.7892 17.4333 42.7371 17.4593L39.3231 18.58C39.1667 18.6321 39.0624 18.8145 39.1146 18.9709C39.1667 19.1273 39.3491 19.2315 39.5055 19.1794L42.9195 18.0587C43.0759 18.0066 43.1801 17.8242 43.128 17.6678C43.0759 17.5375 42.9716 17.4593 42.8674 17.4333ZM4.45304 19.4661C4.29668 19.4661 4.16637 19.5703 4.14031 19.7006C4.11425 19.857 4.21849 20.0394 4.37486 20.0655L5.86035 20.3782C6.01672 20.4043 6.19915 20.3 6.22521 20.1436C6.25127 19.9873 6.14703 19.8048 5.99066 19.7788L4.50517 19.4661C4.50517 19.4661 4.4791 19.4661 4.45304 19.4661ZM43.3626 19.4661C43.3365 19.4661 43.3104 19.4661 43.3104 19.4661L41.8249 19.7788C41.6686 19.8048 41.5383 19.9873 41.5904 20.1436C41.6164 20.3 41.7989 20.4303 41.9552 20.3782L43.4407 20.0655C43.5971 20.0394 43.7274 19.857 43.6753 19.7006C43.6232 19.5703 43.4929 19.4661 43.3626 19.4661ZM4.08818 21.4988C3.93182 21.5249 3.82757 21.6291 3.80151 21.7855C3.77545 21.9679 3.90576 22.0982 4.08818 22.1243L7.65858 22.4892C7.84101 22.5152 7.97132 22.3849 7.99738 22.2025C8.02344 22.0201 7.89313 21.8897 7.7107 21.8637L4.14031 21.4988C4.11425 21.4988 4.08818 21.4988 4.08818 21.4988ZM43.7274 21.5249C43.7013 21.5249 43.6753 21.5249 43.6753 21.5249L40.1049 21.8897C39.9225 21.9158 39.8182 22.0722 39.8182 22.2285C39.8443 22.411 40.0006 22.5152 40.157 22.5152L43.7274 22.1504C43.9098 22.1243 44.0141 21.9679 44.0141 21.8116C43.988 21.6552 43.8838 21.551 43.7274 21.5249ZM4.01 23.5837C3.82757 23.5837 3.69727 23.714 3.69727 23.8965C3.69727 24.0789 3.82757 24.2092 4.01 24.2092H5.52156C5.70398 24.2092 5.83429 24.0789 5.83429 23.8965C5.83429 23.714 5.70398 23.5837 5.52156 23.5837H4.01ZM42.268 23.5837C42.0855 23.5837 41.9552 23.714 41.9552 23.8965C41.9552 24.0789 42.0855 24.2092 42.268 24.2092H43.7795C43.962 24.2092 44.0923 24.0789 44.0923 23.8965C44.0923 23.714 43.962 23.5837 43.7795 23.5837H42.268ZM7.7107 25.2777C7.68464 25.2777 7.65858 25.2777 7.65858 25.2777L4.08818 25.6426C3.90576 25.6686 3.80151 25.825 3.80151 25.9814C3.82757 26.1638 3.98394 26.268 4.14031 26.268L7.7107 25.9032C7.89313 25.8771 7.99738 25.7208 7.99738 25.5644C7.97132 25.408 7.84101 25.3038 7.7107 25.2777ZM40.1049 25.3038C39.9485 25.3298 39.8443 25.4341 39.8182 25.5905C39.7922 25.7729 39.9225 25.9032 40.1049 25.9292L43.6753 26.2941C43.8577 26.3202 43.988 26.1899 44.0141 26.0074C44.0401 25.825 43.9098 25.6947 43.7274 25.6686L40.157 25.3038C40.131 25.3038 40.131 25.3038 40.1049 25.3038ZM5.91248 27.4147C5.88641 27.4147 5.86035 27.4147 5.86035 27.4147L4.37486 27.7275C4.21849 27.7535 4.08819 27.936 4.14031 28.0923C4.16637 28.2487 4.3488 28.379 4.50517 28.3269L5.99066 28.0141C6.14703 27.9881 6.27733 27.8057 6.22521 27.6493C6.19915 27.519 6.06884 27.4147 5.91248 27.4147ZM41.8771 27.4147C41.7207 27.4147 41.5904 27.519 41.5643 27.6493C41.5383 27.8057 41.6425 27.9881 41.7989 28.0141L43.2844 28.3269C43.4407 28.3529 43.6232 28.2487 43.6492 28.0923C43.6753 27.936 43.571 27.7535 43.4147 27.7275L41.9292 27.4147C41.9292 27.4147 41.9031 27.4147 41.8771 27.4147ZM8.41436 28.6396C8.36224 28.6396 8.33618 28.6396 8.28405 28.6657L4.87002 29.7863C4.71366 29.8384 4.60941 30.0209 4.66153 30.1772C4.71366 30.3336 4.89609 30.4378 5.05245 30.3857L8.46648 29.2651C8.62285 29.213 8.72709 29.0305 8.67497 28.8742C8.64891 28.7178 8.5186 28.6396 8.41436 28.6396ZM39.4012 28.6396C39.2709 28.6396 39.1667 28.7178 39.1406 28.8481C39.0885 29.0045 39.1667 29.1869 39.3491 29.239L42.7631 30.3597C42.9195 30.4118 43.1019 30.3336 43.1541 30.1512C43.2062 29.9948 43.128 29.8124 42.9456 29.7603L39.5315 28.6396C39.4794 28.6396 39.4273 28.6396 39.4012 28.6396ZM7.11129 31.0633C7.05917 31.0633 7.03311 31.0633 6.98099 31.0894L5.59974 31.7149C5.44337 31.793 5.36519 31.9755 5.44337 32.1318C5.52156 32.2882 5.70399 32.3664 5.86035 32.2882L7.2416 31.6627C7.39797 31.5845 7.47615 31.4021 7.39797 31.2457C7.34585 31.1415 7.2416 31.0633 7.11129 31.0633ZM40.6782 31.0894C40.5479 31.0894 40.4437 31.1676 40.3916 31.2718C40.3134 31.4282 40.3916 31.6106 40.5479 31.6888L41.9292 32.3143C42.0855 32.3924 42.268 32.3143 42.3462 32.1579C42.4243 32.0015 42.3462 31.8191 42.1898 31.7409L40.8085 31.1154C40.7825 31.0894 40.7304 31.0894 40.6782 31.0894ZM9.79561 31.7409C9.74348 31.7409 9.6653 31.7409 9.61318 31.793L6.51189 33.5913C6.35552 33.6694 6.30339 33.8779 6.40764 34.0082C6.48582 34.1646 6.69431 34.2167 6.82462 34.1125L9.92591 32.3143C10.0823 32.2361 10.1344 32.0276 10.0302 31.8973C9.97804 31.8191 9.89985 31.767 9.79561 31.7409ZM38.02 31.7409C37.9157 31.7409 37.8376 31.793 37.7594 31.8973C37.6812 32.0536 37.7333 32.2361 37.8636 32.3143L40.9649 34.1125C41.1213 34.1907 41.3037 34.1385 41.3819 34.0082C41.4601 33.8519 41.408 33.6694 41.2776 33.5913L38.1764 31.793C38.1242 31.767 38.0721 31.7409 38.02 31.7409ZM9.01377 34.3731C8.96165 34.3731 8.88346 34.3992 8.83134 34.4252L7.60646 35.3113C7.47615 35.4156 7.42403 35.598 7.52828 35.7543C7.63252 35.8847 7.81495 35.9368 7.97132 35.8325L9.1962 34.9465C9.3265 34.8422 9.37863 34.6598 9.27438 34.5034C9.22226 34.4252 9.11801 34.3731 9.01377 34.3731ZM38.7758 34.3992C38.6715 34.3992 38.5673 34.4513 38.5152 34.5295C38.4109 34.6598 38.437 34.8683 38.5933 34.9725L39.8182 35.8586C39.9485 35.9628 40.157 35.9368 40.2613 35.7804C40.3655 35.6501 40.3394 35.4416 40.1831 35.3374L38.9582 34.4513C38.9061 34.4252 38.8279 34.3992 38.7758 34.3992ZM11.7763 34.5034C11.6981 34.5034 11.6199 34.5295 11.5417 34.5816L8.88346 36.9792C8.75316 37.0835 8.75316 37.292 8.8574 37.4223C8.96165 37.5526 9.17014 37.5526 9.30044 37.4483L11.9587 35.0507C12.089 34.9464 12.089 34.738 11.9848 34.6077C11.9326 34.5295 11.8545 34.5034 11.7763 34.5034ZM36.0133 34.5034C35.9351 34.5034 35.8569 34.5295 35.8048 34.6077C35.7005 34.738 35.7005 34.9204 35.8308 35.0507L38.4891 37.4483C38.6194 37.5526 38.8018 37.5526 38.9321 37.4223C39.0364 37.292 39.0364 37.1095 38.9061 36.9792L36.2478 34.5816C36.1696 34.5295 36.0914 34.5034 36.0133 34.5034ZM14.3042 36.7968C14.2 36.7968 14.0957 36.8489 14.0436 36.9271L11.9326 39.8199C11.8284 39.9502 11.8544 40.1587 12.0108 40.263C12.1411 40.3672 12.3496 40.3411 12.4539 40.1848L14.5648 37.292C14.6691 37.1617 14.643 36.9532 14.4866 36.8489C14.4345 36.8229 14.3824 36.7968 14.3042 36.7968ZM33.4853 36.7968C33.4332 36.7968 33.355 36.8229 33.3029 36.8489C33.1726 36.9532 33.1205 37.1356 33.2247 37.292L35.3357 40.1848C35.4399 40.3151 35.6223 40.3672 35.7787 40.263C35.909 40.1587 35.9611 39.9763 35.8569 39.8199L33.7459 36.9271C33.6677 36.8489 33.5635 36.7968 33.4853 36.7968ZM11.5938 37.2398C11.5157 37.2398 11.4375 37.2659 11.3853 37.3441L10.369 38.4647C10.2647 38.595 10.2647 38.7775 10.395 38.9078C10.5253 39.012 10.7078 39.012 10.8381 38.8817L11.8545 37.7611C11.9587 37.6308 11.9587 37.4483 11.8284 37.318C11.7502 37.2659 11.672 37.2398 11.5938 37.2398ZM36.2218 37.2398C36.1436 37.2398 36.0654 37.2659 35.9872 37.318C35.8569 37.4223 35.8569 37.6308 35.9611 37.7611L36.9775 38.8817C37.0818 39.012 37.2903 39.012 37.4206 38.9078C37.5509 38.8035 37.5509 38.595 37.4466 38.4647L36.4302 37.3441C36.3781 37.292 36.2999 37.2659 36.2218 37.2398ZM17.2491 38.4908C17.1188 38.4908 17.0146 38.569 16.9625 38.6732L15.503 41.9569C15.4248 42.1133 15.503 42.2957 15.6594 42.3739C15.8158 42.4521 15.9982 42.3739 16.0764 42.2175L17.5358 38.9338C17.614 38.7775 17.5358 38.595 17.3794 38.5168C17.3534 38.5168 17.3013 38.4908 17.2491 38.4908ZM30.5143 38.5168C30.4622 38.5168 30.4361 38.5168 30.384 38.5429C30.2277 38.6211 30.1495 38.8035 30.2277 38.9599L31.6871 42.2436C31.7653 42.4 31.9477 42.4782 32.1041 42.4C32.2604 42.3218 32.3386 42.1394 32.2604 41.983L30.801 38.6993C30.7489 38.569 30.6446 38.4908 30.5143 38.5168ZM14.6951 39.5072C14.5909 39.5072 14.5127 39.5593 14.4606 39.6635L13.7048 40.9666C13.6266 41.123 13.6787 41.3054 13.809 41.3836C13.9654 41.4618 14.1478 41.4097 14.226 41.2793L14.9818 39.9763C15.06 39.8199 15.0079 39.6375 14.8776 39.5593C14.8254 39.5072 14.7473 39.5072 14.6951 39.5072ZM33.1205 39.5072C33.0683 39.5072 32.9902 39.5072 32.938 39.5593C32.7817 39.6375 32.7295 39.846 32.8338 39.9763L33.5896 41.2793C33.6677 41.4357 33.8762 41.4878 34.0065 41.3836C34.1629 41.3054 34.215 41.0969 34.1108 40.9666L33.355 39.6635C33.3029 39.5593 33.1986 39.5072 33.1205 39.5072ZM20.5068 39.5593C20.3504 39.5593 20.2201 39.6635 20.1941 39.7938L19.4383 43.3121C19.4122 43.4685 19.5165 43.6509 19.6728 43.677C19.8292 43.703 20.0116 43.5988 20.0377 43.4424L20.7935 39.9242C20.8195 39.7678 20.7153 39.5854 20.5589 39.5593C20.5589 39.5593 20.5329 39.5593 20.5068 39.5593ZM27.2827 39.5593C27.2567 39.5593 27.2306 39.5593 27.2306 39.5593C27.0742 39.5854 26.9439 39.7678 26.9961 39.9242L27.7518 43.4424C27.7779 43.5988 27.9603 43.7291 28.1167 43.677C28.2731 43.6509 28.4034 43.4685 28.3512 43.3121L27.5955 39.7938C27.5433 39.6635 27.413 39.5593 27.2827 39.5593ZM23.8948 39.8981C23.7123 39.8981 23.582 40.0284 23.582 40.2108V43.8073C23.582 43.9897 23.7123 44.12 23.8948 44.12C24.0772 44.12 24.2075 43.9897 24.2075 43.8073V40.2108C24.2075 40.0545 24.0772 39.8981 23.8948 39.8981ZM18.1873 41.0709C18.057 41.0709 17.9528 41.149 17.9267 41.2793L17.4576 42.7127C17.4055 42.8691 17.4837 43.0515 17.6661 43.1036C17.8225 43.1558 18.0049 43.0776 18.057 42.8951L18.5261 41.4618C18.5783 41.3054 18.5001 41.123 18.3176 41.0709C18.2655 41.0709 18.2395 41.0709 18.1873 41.0709ZM29.6022 41.0709C29.5501 41.0709 29.524 41.0709 29.4719 41.0969C29.3155 41.149 29.2113 41.3315 29.2634 41.4878L29.7325 42.9212C29.7846 43.0776 29.967 43.1818 30.1234 43.1297C30.2798 43.0776 30.384 42.8951 30.3319 42.7388L29.8628 41.3054C29.8367 41.149 29.7325 41.0709 29.6022 41.0709ZM21.9402 41.8788C21.7838 41.9048 21.6796 42.0091 21.6535 42.1654L21.4971 43.677C21.4711 43.8594 21.6014 43.9897 21.7838 44.0158C21.9662 44.0418 22.0965 43.9115 22.1226 43.7291L22.279 42.2175C22.305 42.0351 22.1747 41.9048 21.9923 41.8788C21.9923 41.8788 21.9662 41.8788 21.9402 41.8788ZM25.8494 41.8788C25.8233 41.8788 25.7972 41.8788 25.7972 41.8788C25.6148 41.9048 25.5106 42.0612 25.5106 42.2175L25.6669 43.7291C25.693 43.9115 25.8494 44.0158 26.0057 44.0158C26.1882 43.9897 26.2924 43.8334 26.2924 43.677L26.136 42.1654C26.11 42.0091 25.9797 41.8788 25.8494 41.8788Z" fill="#F4F2F3"/>
<path opacity="0.409" d="M38.4623 11.4631L21.4703 21.3404L10.707 38.2802L26.4481 26.6308L38.4623 11.4631Z" fill="#0F0518"/>
<path d="M26.3442 26.4508L21.4707 21.3428L38.7754 9.69336L26.3442 26.4508Z" fill="#FF5150"/>
<path d="M26.3438 26.4491L21.4703 21.3411L9.03906 38.0724L26.3438 26.4491Z" fill="#F1F1F1"/>
<path opacity="0.243" d="M9.03906 38.0995L26.3438 26.4501L38.775 9.71875L9.03906 38.0995Z" fill="#0F0518"/>
<defs>
<linearGradient id="paint0_linear_8396_20272" x1="23.9025" y1="47.044" x2="23.9025" y2="0.760924" gradientUnits="userSpaceOnUse">
<stop stop-color="#BDBDBD"/>
<stop offset="1" stop-color="white"/>
</linearGradient>
<radialGradient id="paint1_radial_8396_20272" cx="0" cy="0" r="1" gradientUnits="userSpaceOnUse" gradientTransform="translate(23.997 20.7927) scale(23.1409 23.1409)">
<stop stop-color="#06C2E7"/>
<stop offset="0.25" stop-color="#0DB8EC"/>
<stop offset="0.5" stop-color="#12AEF1"/>
<stop offset="0.75" stop-color="#1F86F9"/>
<stop offset="1" stop-color="#107DDD"/>
</radialGradient>
</defs>
</svg>
