<svg width="42" height="29" viewBox="0 0 42 29" fill="none" xmlns="http://www.w3.org/2000/svg">
<path d="M35.5398 10.753C35.3328 9.21884 34.4805 7.90387 32.9342 6.69847L32.0454 6.10186L31.4488 6.99069C30.6939 8.1352 30.3043 9.73022 30.426 11.2522C30.4869 11.7879 30.6573 12.7498 31.2053 13.5899C30.6573 13.8821 29.5737 14.2961 28.1248 14.2718H0.485956L0.437253 14.5883C0.181563 16.1225 0.181563 20.8953 3.28637 24.5724C5.64845 27.3606 9.17941 28.7852 13.8062 28.7852C23.8146 28.7852 31.2174 24.1828 34.6875 15.8059C36.0512 15.8302 38.9855 15.8181 40.4953 12.9324C40.5318 12.8716 40.6292 12.6889 40.8849 12.1532L41.031 11.8488L40.1787 11.2765C39.2656 10.6677 37.1592 10.4486 35.5398 10.753ZM22.597 0.525391H18.3964V4.34856H22.597V0.525391ZM22.597 5.11563H18.3964V8.92662H22.597V5.11563ZM17.6293 5.11563H13.4287V8.92662H17.6293V5.11563ZM12.6617 5.11563H8.46104V8.92662H12.6617V5.11563ZM7.69397 9.69369H3.49335V13.5169H7.69397V9.69369ZM12.6617 9.69369H8.46104V13.5169H12.6617V9.69369ZM17.6293 9.69369H13.4287V13.5169H17.6293V9.69369ZM22.597 9.69369H18.3964V13.5169H22.597V9.69369ZM27.5647 9.69369H23.3641V13.5169H27.5647V9.69369Z" fill="#FBFBFC"/>
</svg>
