<svg width="43" height="42" viewBox="0 0 43 42" fill="none" xmlns="http://www.w3.org/2000/svg">
<path d="M42.215 20.1803L40.4605 19.0958V18.582L41.9671 17.174C42.0428 17.1014 42.0998 17.0115 42.133 16.9121C42.1662 16.8127 42.1747 16.7067 42.1578 16.6032C42.1341 16.5051 42.0871 16.414 42.0207 16.3378C41.9543 16.2617 41.8705 16.2026 41.7764 16.1656L39.8693 15.4426C39.7972 15.2849 39.7144 15.1323 39.6214 14.9859L40.8419 13.3115C40.8888 13.2203 40.9132 13.1192 40.9132 13.0166C40.9132 12.9141 40.8888 12.813 40.8419 12.7217C40.8035 12.6271 40.7411 12.544 40.6609 12.4806C40.5807 12.4173 40.4853 12.3758 40.3842 12.3602L38.3437 12.0177C38.3437 11.8655 38.1911 11.7133 38.0957 11.561L38.9539 9.65833C39.0017 9.56498 39.0236 9.46061 39.0175 9.35598C39.0114 9.25135 38.9775 9.15022 38.9192 9.06301C38.861 8.97581 38.7805 8.90567 38.686 8.85981C38.5915 8.81395 38.4865 8.79404 38.3818 8.80211H36.3222L35.9789 8.40254L36.4557 6.38567C36.4827 6.28555 36.4828 6.18009 36.456 6.07992C36.4292 5.97974 36.3764 5.88839 36.3029 5.81507C36.2294 5.74175 36.1379 5.68906 36.0374 5.66229C35.937 5.63553 35.8313 5.63565 35.731 5.66264L33.7095 6.13832C33.5847 6.02025 33.4508 5.9121 33.309 5.81486V3.7409C33.314 3.63672 33.2921 3.53301 33.2453 3.43973C33.1986 3.34644 33.1286 3.26669 33.0421 3.20814C32.9522 3.15637 32.8502 3.12912 32.7465 3.12912C32.6427 3.12912 32.5407 3.15637 32.4509 3.20814L30.5438 4.06436L30.0861 3.81701L29.9145 1.81916C29.8989 1.71827 29.8573 1.62315 29.7937 1.54311C29.7302 1.46306 29.647 1.40084 29.5521 1.36251C29.4607 1.31576 29.3593 1.29138 29.2565 1.29138C29.1538 1.29138 29.0524 1.31576 28.961 1.36251L27.2446 2.63733L26.7488 2.48511L26.0241 0.582403C25.987 0.488464 25.9278 0.404826 25.8514 0.338581C25.7751 0.272336 25.6839 0.225437 25.5855 0.201861C25.4818 0.184963 25.3755 0.193451 25.2759 0.226596C25.1762 0.25974 25.0861 0.316549 25.0133 0.392132L23.6021 1.89527H23.0872L22.0383 0.0496442C21.9832 -0.0367946 21.9071 -0.107962 21.8171 -0.157267C21.7271 -0.206572 21.6261 -0.232422 21.5234 -0.232422C21.4208 -0.232422 21.3197 -0.206572 21.2297 -0.157267C21.1397 -0.107962 21.0636 -0.0367946 21.0085 0.0496442L19.9215 1.80014H19.4066L17.9954 0.354078C17.9252 0.279606 17.8373 0.22398 17.7398 0.192332C17.6424 0.160683 17.5385 0.154031 17.4378 0.172989C17.3371 0.191947 17.2428 0.235905 17.1636 0.300807C17.0844 0.36571 17.0228 0.449466 16.9846 0.544349L16.26 2.44706L15.8023 2.63733L14.0859 1.4196C14.0014 1.36022 13.9031 1.32325 13.8003 1.31215C13.6976 1.30104 13.5936 1.31617 13.4983 1.35611C13.403 1.39605 13.3194 1.4595 13.2554 1.54049C13.1914 1.62148 13.1491 1.71738 13.1324 1.81916L12.7891 3.85506L12.3314 4.10242L10.4244 3.2462C10.3345 3.19443 10.2326 3.16717 10.1288 3.16717C10.025 3.16717 9.92306 3.19443 9.83319 3.2462C9.74668 3.30475 9.67669 3.38449 9.62994 3.47778C9.58319 3.57107 9.56124 3.67477 9.5662 3.77896V5.85291L9.16572 6.17637L7.25866 5.73875C7.15832 5.71176 7.05262 5.71164 6.95222 5.7384C6.85181 5.76516 6.76025 5.81786 6.68676 5.89118C6.61328 5.9645 6.56046 6.05585 6.53364 6.15603C6.50682 6.2562 6.50694 6.36166 6.53398 6.46178L7.01075 8.47865L6.68655 8.87822H4.60786C4.50344 8.87327 4.39949 8.89517 4.30599 8.94181C4.21249 8.98846 4.13257 9.05828 4.07388 9.1446C4.022 9.23427 3.99468 9.33598 3.99468 9.43952C3.99468 9.54306 4.022 9.64477 4.07388 9.73444L4.93206 11.6371L4.68414 12.0938L2.60545 12.3221C2.50433 12.3377 2.40899 12.3792 2.32876 12.4426C2.24853 12.506 2.18617 12.589 2.14776 12.6836C2.1009 12.7749 2.07646 12.876 2.07646 12.9786C2.07646 13.0811 2.1009 13.1822 2.14776 13.2735L3.42548 14.9859C3.36343 15.1472 3.31246 15.3125 3.27292 15.4806L1.36586 16.2037C1.27171 16.2406 1.18788 16.2997 1.12149 16.3759C1.05509 16.4521 1.00808 16.5431 0.984453 16.6413C0.967516 16.7447 0.976024 16.8507 1.00924 16.9502C1.04246 17.0496 1.0994 17.1395 1.17516 17.2121L2.68173 18.6201V19.1338L0.927241 20.2184C0.840605 20.2734 0.769276 20.3493 0.719858 20.4391C0.67044 20.5289 0.644531 20.6297 0.644531 20.7321C0.644531 20.8346 0.67044 20.9353 0.719858 21.0251C0.769276 21.1149 0.840605 21.1909 0.927241 21.2458L2.68173 22.3304V22.8441L1.17516 24.2521C1.0994 24.3247 1.04246 24.4146 1.00924 24.5141C0.976024 24.6135 0.967516 24.7195 0.984453 24.8229C1.00808 24.9211 1.05509 25.0121 1.12149 25.0883C1.18788 25.1645 1.27171 25.2236 1.36586 25.2606L3.27292 25.9836C3.31246 26.1518 3.36343 26.317 3.42548 26.4783L2.20497 28.1527C2.15811 28.244 2.13367 28.345 2.13367 28.4476C2.13367 28.5501 2.15811 28.6512 2.20497 28.7425C2.24338 28.8371 2.30575 28.9202 2.38597 28.9836C2.4662 29.0469 2.56154 29.0884 2.66266 29.104L4.70321 29.4465L4.95113 29.9032L4.09295 31.8059C4.04107 31.8955 4.01375 31.9973 4.01375 32.1008C4.01375 32.2043 4.04107 32.3061 4.09295 32.3957C4.15164 32.482 4.23156 32.5519 4.32506 32.5985C4.41857 32.6451 4.52251 32.667 4.62693 32.6621H6.70562C6.80308 32.8035 6.91148 32.9371 7.02982 33.0617L6.55305 35.0785C6.52601 35.1787 6.52589 35.2841 6.55271 35.3843C6.57953 35.4845 6.63235 35.5758 6.70583 35.6491C6.77932 35.7225 6.87088 35.7752 6.97129 35.8019C7.07169 35.8287 7.17739 35.8286 7.27774 35.8016L9.29921 35.3259L9.6997 35.6494V37.7233C9.69474 37.8275 9.71669 37.9312 9.76344 38.0245C9.81019 38.1178 9.88017 38.1975 9.96668 38.2561C10.0566 38.3078 10.1585 38.3351 10.2623 38.3351C10.3661 38.3351 10.468 38.3078 10.5579 38.2561L12.4649 37.3998L12.9226 37.6472L13.2659 39.6831C13.2815 39.784 13.3231 39.8791 13.3866 39.9592C13.4501 40.0392 13.5334 40.1014 13.6282 40.1398C13.7197 40.1865 13.821 40.2109 13.9238 40.2109C14.0266 40.2109 14.1279 40.1865 14.2194 40.1398L15.8023 38.7508L16.2981 38.903L17.0228 40.8057C17.0599 40.8996 17.1191 40.9833 17.1954 41.0495C17.2718 41.1158 17.363 41.1627 17.4614 41.1862C17.5651 41.2031 17.6713 41.1947 17.771 41.1615C17.8706 41.1284 17.9607 41.0716 18.0335 40.996L19.4447 39.4928H19.9597L21.0467 41.2433C21.1018 41.3298 21.1779 41.4009 21.2679 41.4502C21.3579 41.4995 21.4589 41.5254 21.5616 41.5254C21.6643 41.5254 21.7653 41.4995 21.8553 41.4502C21.9453 41.4009 22.0214 41.3298 22.0765 41.2433L23.1635 39.4928H23.6784L25.0896 40.996C25.1624 41.0716 25.2525 41.1284 25.3522 41.1615C25.4518 41.1947 25.5581 41.2031 25.6617 41.1862C25.7601 41.1627 25.8514 41.1158 25.9277 41.0495C26.0041 40.9833 26.0633 40.8996 26.1004 40.8057L26.8251 38.903L27.3209 38.7508L28.9991 39.9685C29.0906 40.0153 29.1919 40.0396 29.2947 40.0396C29.3975 40.0396 29.4988 40.0153 29.5903 39.9685C29.6851 39.9302 29.7684 39.868 29.8319 39.7879C29.8954 39.7079 29.937 39.6128 29.9526 39.5119L30.2959 37.476L30.7536 37.2286L32.6606 38.0848C32.7505 38.1366 32.8525 38.1638 32.9562 38.1638C33.06 38.1638 33.162 38.1366 33.2518 38.0848C33.3383 38.0263 33.4083 37.9465 33.4551 37.8532C33.5018 37.76 33.5238 37.6562 33.5188 37.5521V35.4781C33.6606 35.3809 33.7945 35.2727 33.9193 35.1547L35.9408 35.6303C36.0411 35.6573 36.1468 35.6574 36.2472 35.6307C36.3476 35.6039 36.4392 35.5512 36.5127 35.4779C36.5862 35.4046 36.639 35.3132 36.6658 35.2131C36.6926 35.1129 36.6925 35.0074 36.6655 34.9073L36.1887 32.8904L36.532 32.4909H38.5916C38.6963 32.4989 38.8013 32.479 38.8958 32.4332C38.9902 32.3873 39.0708 32.3172 39.129 32.23C39.1873 32.1427 39.2212 32.0416 39.2273 31.937C39.2334 31.8324 39.2115 31.728 39.1637 31.6346L38.3055 29.7319C38.4009 29.5797 38.4772 29.4275 38.5534 29.2753L40.594 28.9328C40.6951 28.9172 40.7905 28.8757 40.8707 28.8123C40.9509 28.749 41.0133 28.6659 41.0517 28.5713C41.0985 28.48 41.123 28.3789 41.123 28.2764C41.123 28.1738 41.0985 28.0727 41.0517 27.9814L39.6214 26.4022C39.6834 26.2409 39.7344 26.0756 39.774 25.9075L41.681 25.1844C41.7752 25.1475 41.859 25.0884 41.9254 25.0122C41.9918 24.936 42.0388 24.845 42.0624 24.7468C42.0794 24.6434 42.0709 24.5374 42.0376 24.438C42.0044 24.3385 41.9475 24.2486 41.8717 24.176L40.3651 22.768V22.2543L42.1196 21.1697C42.2063 21.1147 42.2776 21.0388 42.327 20.949C42.3764 20.8592 42.4023 20.7584 42.4023 20.656C42.4023 20.5536 42.3764 20.4528 42.327 20.363C42.2776 20.2732 42.2063 20.1973 42.1196 20.1423L42.215 20.1803ZM30.4294 34.7551C30.1057 34.687 29.8224 34.4933 29.6418 34.2168C29.4611 33.9402 29.398 33.6034 29.4663 33.2805C29.5346 32.9575 29.7287 32.6748 30.0058 32.4946C30.283 32.3144 30.6206 32.2515 30.9443 32.3196C31.2667 32.3925 31.5475 32.589 31.7259 32.8667C31.9044 33.1444 31.9661 33.481 31.8978 33.8037C31.8662 33.9635 31.8027 34.1154 31.7112 34.2503C31.6197 34.3851 31.5021 34.5004 31.3651 34.5891C31.2282 34.6778 31.0749 34.7382 30.9141 34.7667C30.7534 34.7952 30.5886 34.7913 30.4294 34.7551ZM29.8191 30.7213C29.6738 30.6908 29.5239 30.6892 29.378 30.7167C29.2321 30.7442 29.0931 30.8002 28.969 30.8816C28.8449 30.963 28.7382 31.068 28.655 31.1907C28.5717 31.3135 28.5137 31.4514 28.4842 31.5966L27.8549 34.5077C25.8699 35.4245 23.7107 35.9046 21.5234 35.9157C19.2922 35.9142 17.0874 35.4341 15.0585 34.5077L14.4292 31.5395C14.4021 31.3931 14.3456 31.2536 14.263 31.1296C14.1805 31.0055 14.0737 30.8994 13.9489 30.8176C13.8242 30.7359 13.6842 30.6801 13.5373 30.6538C13.3904 30.6274 13.2397 30.631 13.0943 30.6643L10.5197 31.216C10.0389 30.7209 9.59285 30.1932 9.18479 29.6368H21.7141C21.8667 29.6368 21.943 29.6368 21.943 29.4846V25.0703C21.943 24.9371 21.943 24.9181 21.7141 24.9181H18.0526V22.1021H22.0193C22.6099 22.1124 23.178 22.3297 23.6242 22.7158C24.0705 23.1019 24.3664 23.6322 24.4603 24.2141C24.6129 24.842 24.9561 26.8398 25.185 27.4867C25.4138 28.1336 26.3864 29.6368 27.4162 29.6368H33.8812C33.442 30.2204 32.9708 30.7794 32.4699 31.3112L29.8191 30.7213ZM12.484 34.698C12.3248 34.7342 12.16 34.7381 11.9993 34.7096C11.8385 34.6811 11.6852 34.6207 11.5482 34.532C11.4113 34.4433 11.2936 34.3281 11.2021 34.1932C11.1106 34.0583 11.0472 33.9064 11.0156 33.7466C10.9792 33.5867 10.975 33.421 11.0034 33.2594C11.0317 33.0978 11.0921 32.9435 11.1808 32.8053C11.2695 32.6672 11.3849 32.5481 11.5203 32.4549C11.6556 32.3617 11.8082 32.2963 11.9691 32.2625C12.2928 32.1944 12.6304 32.2574 12.9075 32.4376C13.1847 32.6178 13.3788 32.9004 13.4471 33.2234C13.5153 33.5464 13.4522 33.8832 13.2716 34.1597C13.091 34.4362 12.8077 34.6299 12.484 34.698ZM7.73543 15.4616C7.83462 15.6851 7.86524 15.9328 7.82341 16.1736C7.78159 16.4144 7.66919 16.6375 7.50042 16.8146C7.33164 16.9917 7.11406 17.115 6.87513 17.1688C6.6362 17.2226 6.38664 17.2047 6.15795 17.1171C5.92926 17.0296 5.73169 16.8764 5.59019 16.6769C5.44869 16.4774 5.36961 16.2405 5.36291 15.9962C5.35621 15.7519 5.42221 15.5111 5.55257 15.3042C5.68293 15.0973 5.87181 14.9336 6.09536 14.8337C6.24392 14.7645 6.40493 14.7258 6.56878 14.7201C6.73263 14.7143 6.89597 14.7415 7.04904 14.8001C7.20212 14.8588 7.34178 14.9475 7.45971 15.0612C7.57764 15.1748 7.67141 15.311 7.73543 15.4616ZM6.267 18.9245L8.95594 17.7258C9.09371 17.6661 9.21811 17.5795 9.32181 17.4711C9.4255 17.3627 9.50639 17.2347 9.55971 17.0946C9.61303 16.9545 9.6377 16.8052 9.63227 16.6555C9.62683 16.5057 9.5914 16.3586 9.52806 16.2227L8.97502 14.9859H11.1491V24.7659H6.76283C6.24398 22.8648 6.07596 20.8855 6.267 18.9245ZM18.0526 17.9732V15.0811H23.2207C23.4877 15.0811 25.1278 15.3855 25.1278 16.6032C25.1278 17.821 23.8882 17.9732 22.8774 17.9732H18.0526ZM36.7799 20.5609C36.7799 20.9414 36.7799 21.3219 36.7799 21.7025H35.2542C35.0826 21.7025 35.0254 21.7976 35.0254 21.9498V22.5968C35.0254 24.2902 34.0719 24.6707 33.2328 24.7659C32.3937 24.861 31.5355 24.4234 31.4211 23.9287C31.3667 23.0834 31.1119 22.2631 30.6776 21.5353C30.2432 20.8075 29.6418 20.1931 28.9228 19.7427C29.7653 19.3297 30.4931 18.7162 31.0418 17.9564C31.5906 17.1965 31.9435 16.3136 32.0695 15.3855C32.0366 14.5668 31.7997 13.7693 31.3801 13.065C30.9605 12.3606 30.3716 11.7718 29.6666 11.3517C28.6771 10.7163 27.5416 10.3431 26.3674 10.2672H10.0811C12.344 7.77177 15.3658 6.08713 18.6819 5.47237L20.589 7.48924C20.6953 7.59567 20.8216 7.68012 20.9607 7.73774C21.0998 7.79536 21.2489 7.82502 21.3995 7.82502C21.5501 7.82502 21.6992 7.79536 21.8383 7.73774C21.9774 7.68012 22.1037 7.59567 22.21 7.48924L24.3459 5.47237C26.5407 5.885 28.6191 6.76929 30.437 8.06385C32.2548 9.35841 33.7685 11.0322 34.8728 12.969L33.4044 16.2798C33.3411 16.4156 33.3056 16.5628 33.3002 16.7125C33.2948 16.8623 33.3194 17.0116 33.3727 17.1517C33.4261 17.2918 33.507 17.4198 33.6106 17.5282C33.7143 17.6366 33.8387 17.7232 33.9765 17.7829L36.799 19.0387C36.8217 19.546 36.8153 20.0543 36.7799 20.5609ZM20.5127 3.81701C20.7485 3.58347 21.0672 3.4524 21.3995 3.4524C21.7317 3.4524 22.0505 3.58347 22.2863 3.81701C22.4016 3.93188 22.4931 4.06831 22.5555 4.2185C22.6179 4.36868 22.6501 4.52967 22.6501 4.69226C22.6501 4.85484 22.6179 5.01583 22.5555 5.16602C22.4931 5.3162 22.4016 5.45263 22.2863 5.5675C22.0505 5.80105 21.7317 5.93211 21.3995 5.93211C21.0672 5.93211 20.7485 5.80105 20.5127 5.5675C20.4022 5.4477 20.3166 5.30732 20.2606 5.15442C20.2046 5.00151 20.1795 4.83908 20.1866 4.67646C20.1936 4.51383 20.2328 4.35419 20.3019 4.20671C20.371 4.05923 20.4685 3.92679 20.589 3.81701H20.5127ZM35.1017 15.5187C35.1762 15.3732 35.2789 15.2439 35.4039 15.1383C35.5288 15.0327 35.6734 14.9528 35.8295 14.9033C35.9855 14.8537 36.1498 14.8355 36.313 14.8497C36.4761 14.8639 36.6348 14.9102 36.7799 14.9859C37.0034 15.0858 37.1923 15.2495 37.3227 15.4565C37.453 15.6634 37.519 15.9042 37.5123 16.1485C37.5056 16.3928 37.4265 16.6296 37.285 16.8291C37.1436 17.0286 36.946 17.1818 36.7173 17.2693C36.4886 17.3569 36.239 17.3749 36.0001 17.321C35.7612 17.2672 35.5436 17.1439 35.3748 16.9668C35.2061 16.7897 35.0937 16.5666 35.0518 16.3258C35.01 16.085 35.0406 15.8373 35.1398 15.6138L35.1017 15.5187Z" fill="#FBFBFC"/>
</svg>
