<svg width="37" height="40" viewBox="0 0 37 40" fill="none" xmlns="http://www.w3.org/2000/svg">
<path fill-rule="evenodd" clip-rule="evenodd" d="M2.16618 31.1012C1.62585 30.7894 1.17557 30.3428 0.859258 29.8051C0.542945 29.2674 0.371401 28.6568 0.361357 28.033V11.7896C0.358831 11.1536 0.524422 10.5281 0.841361 9.97666C1.1583 9.42518 1.61533 8.96725 2.16618 8.64922L16.6048 0.491414C17.1535 0.174601 17.776 0.0078125 18.4096 0.0078125C19.0432 0.0078125 19.6657 0.174601 20.2144 0.491414L34.6516 8.64812C35.1919 8.95997 35.6422 9.40654 35.9585 9.94427C36.2748 10.482 36.4463 11.0925 36.4564 11.7163V27.9597C36.4589 28.5958 36.2933 29.2212 35.9764 29.7727C35.6594 30.3242 35.2024 30.7821 34.6516 31.1001L20.2129 39.2579C19.6642 39.5748 19.0417 39.7415 18.4081 39.7415C17.7745 39.7415 17.152 39.5748 16.6033 39.2579L2.16618 31.1012ZM27.7594 17.3125H22.1464C22.0083 16.4666 21.5518 15.7056 20.8706 15.1855C20.1894 14.6654 19.335 14.4255 18.4826 14.515C15.2339 14.515 14.4759 17.7998 14.4759 19.9295C14.4759 21.247 15.0354 25.344 18.4826 25.344C18.9346 25.4155 19.3968 25.3868 19.8364 25.26C20.2761 25.1331 20.6825 24.9112 21.0269 24.6098C21.3713 24.3085 21.6452 23.9351 21.8293 23.5162C22.0134 23.0973 22.1032 22.643 22.0923 22.1855H27.5068C27.5068 24.9289 25.8102 30.0907 18.5909 30.0907C17.2312 30.1733 15.8694 29.9651 14.5965 29.48C13.3235 28.9949 12.1686 28.2439 11.2088 27.2773C10.2489 26.3106 9.5062 25.1504 9.03011 23.874C8.55402 22.5977 8.3555 21.2345 8.44781 19.8753C8.36352 18.5106 8.5663 17.1433 9.04305 15.8617C9.5198 14.5802 10.2599 13.4128 11.2157 12.4349C12.1715 11.457 13.3216 10.6904 14.592 10.1845C15.8623 9.67853 17.2246 9.44455 18.5909 9.49761C20.8302 9.37427 23.0311 10.1169 24.7379 11.5717C26.4446 13.0265 27.5265 15.082 27.7594 17.3125Z" fill="#FBFBFC"/>
</svg>
