<svg width="43" height="42" viewBox="0 0 43 42" fill="none" xmlns="http://www.w3.org/2000/svg">
<path fill-rule="evenodd" clip-rule="evenodd" d="M16.8957 0H25.4207C33.2537 0 37.1703 0 39.6037 2.43342C42.0371 4.86684 42.0371 8.78337 42.0371 16.6164V25.1414C42.0371 32.9744 42.0371 36.891 39.6037 39.3244C37.1703 41.7578 33.2537 41.7578 25.4207 41.7578H16.8957C9.06267 41.7578 5.14614 41.7578 2.71272 39.3244C0.279297 36.891 0.279297 32.9744 0.279297 25.1414V16.6164C0.279297 8.78337 0.279297 4.86684 2.71272 2.43342C5.14614 0 9.06267 0 16.8957 0ZM32.2003 35.0045C30.2649 35.0045 29.1706 33.9951 28.3294 32.6217L25.1406 34.4743C26.2926 36.7504 28.6469 38.487 32.2911 38.487C36.0182 38.487 38.7934 36.5516 38.7934 33.0187C38.7934 29.7417 36.911 28.2842 33.577 26.8545L32.596 26.4342C30.9125 25.7051 30.1834 25.2286 30.1834 24.0514C30.1834 23.0989 30.9118 22.3698 32.0611 22.3698C33.1879 22.3698 33.9137 22.8451 34.5865 24.0514L37.6421 22.0894C36.3496 19.816 34.556 18.9477 32.0611 18.9477C28.5568 18.9477 26.3145 21.188 26.3145 24.1309C26.3145 27.3257 28.1955 28.837 31.0271 30.0433L32.0081 30.4642C33.7977 31.247 34.8649 31.7236 34.8649 33.0691C34.8649 34.1919 33.8262 35.0045 32.2003 35.0045ZM16.9932 34.98C15.645 34.98 15.0843 34.0554 14.4678 32.9617L11.2737 34.8955C12.199 36.8538 14.0184 38.4797 17.1602 38.4797C20.6374 38.4797 23.0196 36.6304 23.0196 32.5673V19.1717H19.0957V32.5143C19.0957 34.4756 18.2824 34.98 16.9932 34.98Z" fill="#FBFBFC"/>
</svg>
