<svg width="42" height="42" viewBox="0 0 42 42" fill="none" xmlns="http://www.w3.org/2000/svg">
<path d="M21.0011 0.000320873C19.2978 0.00838965 17.6719 0.153224 16.2405 0.406584C12.0246 1.15133 11.2597 2.71022 11.2597 5.58553V9.38229H21.2218V10.6479H7.52061C4.62553 10.6479 2.09032 12.3879 1.29716 15.6993C0.382164 19.4937 0.34182 21.8619 1.29716 25.824C2.0052 28.7736 3.69641 30.8747 6.59189 30.8747H10.0175V26.3231C10.0175 23.0346 12.8621 20.1343 16.2409 20.1343H26.1917C28.9618 20.1343 31.1726 17.8533 31.1726 15.072V5.58593C31.1726 2.88571 28.8948 0.857628 26.1917 0.406987C24.4796 0.122159 22.704 -0.00734446 21.0011 0.000320873ZM15.6136 3.05395C16.6424 3.05395 17.4831 3.90803 17.4831 4.95858C17.4831 6.0047 16.6428 6.85071 15.6136 6.85071C14.5808 6.85071 13.7445 6.0047 13.7445 4.95858C13.7441 3.90803 14.5808 3.05395 15.6136 3.05395Z" fill="#FBFBFC"/>
<path opacity="0.5" d="M32.4149 10.6471V15.0712C32.4149 18.5005 29.5069 21.3871 26.1914 21.3871H16.2406C13.515 21.3871 11.2598 23.7202 11.2598 26.4498V35.9367C11.2598 38.6361 13.607 40.2244 16.2406 40.9986C19.3939 41.9253 22.4181 42.0932 26.1914 40.9986C28.6992 40.272 31.1723 38.8108 31.1723 35.9367V32.1395H21.2219V30.8735H36.1539C39.049 30.8735 40.1286 28.8543 41.1356 25.8229C42.1757 22.7023 42.1309 19.7011 41.1356 15.6982C40.4199 12.8156 39.0535 10.6467 36.1539 10.6467H32.4149V10.6471ZM26.818 34.6707C27.8512 34.6707 28.6875 35.5167 28.6875 36.5636C28.6875 37.6134 27.8508 38.4675 26.818 38.4675C25.7892 38.4675 24.9488 37.6134 24.9488 36.5636C24.9488 35.5167 25.7892 34.6707 26.818 34.6707Z" fill="#FBFBFC"/>
</svg>
