<svg width="42" height="19" viewBox="0 0 42 19" fill="none" xmlns="http://www.w3.org/2000/svg">
<path d="M3.6699 5.94394C3.58984 5.94394 3.56983 5.89819 3.60986 5.82958L4.03017 5.21202C4.07019 5.1434 4.17027 5.09766 4.25033 5.09766H11.3955C11.4756 5.09766 11.4956 5.16627 11.4556 5.23489L11.1153 5.82958C11.0753 5.89819 10.9752 5.96681 10.9152 5.96681L3.6699 5.94394Z" fill="#FBFBFC"/>
<path d="M0.652324 8.04575C0.572266 8.04575 0.552251 8 0.59228 7.93138L1.01259 7.31383C1.05262 7.24521 1.15269 7.19946 1.23275 7.19946H10.3594C10.4395 7.19946 10.4795 7.26808 10.4595 7.3367L10.2994 7.88564C10.2794 7.97713 10.1993 8.02287 10.1192 8.02287L0.652324 8.04575Z" fill="#FBFBFC"/>
<path d="M5.49021 10.149C5.41016 10.149 5.39014 10.0804 5.43017 10.0118L5.71038 9.43997C5.75041 9.37135 5.83046 9.30273 5.91052 9.30273H9.91345C9.99351 9.30273 10.0335 9.37135 10.0335 9.46284L9.99351 10.0118C9.99351 10.1033 9.91345 10.1719 9.8534 10.1719L5.49021 10.149Z" fill="#FBFBFC"/>
<path d="M26.2605 5.52952C24.9996 5.89548 24.1389 6.16995 22.898 6.53591C22.5978 6.6274 22.5778 6.65027 22.3176 6.30718C22.0174 5.91835 21.7972 5.66675 21.3769 5.43803C20.116 4.72898 18.8951 4.93483 17.7543 5.78112C16.3933 6.78751 15.6928 8.27422 15.7128 10.1269C15.7328 11.9567 16.8336 13.4663 18.4147 13.7179C19.7757 13.9237 20.9166 13.3748 21.8172 12.2083C21.9974 11.9567 22.1575 11.6822 22.3576 11.362C21.6371 11.362 20.7364 11.362 18.4948 11.362C18.0745 11.362 17.9744 11.0647 18.1145 10.6758C18.3747 9.96679 18.8551 8.77742 19.1353 8.18273C19.1953 8.0455 19.3354 7.81677 19.6356 7.81677C20.6564 7.81677 24.4191 7.81677 26.921 7.81677C26.8809 8.43433 26.8809 9.05188 26.8009 9.66944C26.5807 11.3163 26.0403 12.8258 25.1597 14.1525C23.7186 16.3253 21.8372 17.6748 19.4555 18.0408C17.4941 18.3381 15.6727 17.9035 14.0716 16.5312C12.5905 15.2503 11.7499 13.5578 11.5297 11.4535C11.2695 8.96039 11.91 6.71889 13.231 4.75185C14.652 2.62471 16.5334 1.27523 18.8351 0.794912C20.7164 0.40608 22.5177 0.657677 24.1389 1.91566C25.1997 2.7162 25.9603 3.81408 26.4606 5.14069C26.5807 5.34654 26.5007 5.4609 26.2605 5.52952Z" fill="#FBFBFC"/>
<path d="M32.8901 18.1791C31.0688 18.1334 29.4075 17.5387 28.0065 16.1663C26.8257 14.9998 26.0851 13.5131 25.8449 11.7519C25.4847 9.16734 26.1051 6.88009 27.4661 4.84444C28.9272 2.64868 30.6885 1.50505 33.0702 1.02473C35.1117 0.613027 37.0331 0.841752 38.7744 2.19123C40.3555 3.42635 41.3363 5.09604 41.5965 7.2918C41.9367 10.3796 41.1561 12.8956 39.2948 15.0456C37.9738 16.578 36.3526 17.5387 34.4913 17.9733C33.9509 18.0876 33.4105 18.1105 32.8901 18.1791ZM37.6536 8.93862C37.6336 8.64128 37.6336 8.41255 37.5935 8.18383C37.2333 5.91945 35.4119 4.63859 33.5105 5.14178C31.6492 5.62211 30.4483 6.97158 30.008 9.1216C29.6477 10.9057 30.4083 12.7126 31.8493 13.4445C32.9501 13.9934 34.0509 13.9248 35.1117 13.3073C36.6929 12.3695 37.5535 10.9057 37.6536 8.93862Z" fill="#FBFBFC"/>
</svg>
