<svg width="42" height="42" viewBox="0 0 42 42" fill="none" xmlns="http://www.w3.org/2000/svg">
<path d="M21.1766 41.3637C32.5205 41.3637 41.7165 32.2466 41.7165 21.0001C41.7165 9.75359 32.5205 0.636475 21.1766 0.636475C9.83275 0.636475 0.636719 9.75359 0.636719 21.0001C0.636719 32.2466 9.83275 41.3637 21.1766 41.3637Z" fill="#0F0518"/>
<path d="M14.5264 10.1918C13.567 10.1579 12.5123 10.4868 11.0884 11.1584C9.57229 11.6464 8.7049 12.9649 10.487 12.964L10.4437 14.1242L9.32022 14.5554L9.27835 15.6826C9.27835 15.6826 9.10539 16.9925 10.5317 16.9168C10.3456 16.9611 10.1918 17.0536 10.4004 17.2622C10.7873 17.649 11.297 17.5199 13.1454 17.5629C14.9938 17.6059 15.193 19.6626 15.193 19.6626C15.193 19.6626 15.6081 23.0315 15.5465 26.3142C13.5439 25.2486 11.5444 24.3052 10.9226 24.4412C9.547 24.7421 8.37188 26.0996 9.54676 28.0516C10.6226 29.8389 12.4406 31.1113 14.2711 32.2589C13.7247 33.1623 13.0465 33.6404 11.6735 33.3062C10.9832 33.1381 11.0396 32.7489 9.17128 31.7243C5.73146 30.3396 6.32415 31.3279 7.16918 32.143C8.94197 33.4079 9.81457 34.5562 11.1272 35.0927C12.4175 35.6201 14.1437 35.5634 16.3451 33.6824C16.3814 33.6434 16.4125 33.604 16.4478 33.565C16.4229 33.594 16.4023 33.6233 16.3767 33.6523C19.193 35.405 22.6973 35.9481 25.9274 35.2334C26.0856 35.1818 26.5983 35.1151 26.5552 35.0538C26.5817 35.0566 26.604 35.0607 26.6307 35.0639C26.6451 34.9794 29.8551 35.4084 32.2226 34.4486C34.5165 33.5186 36.0137 31.7773 36.3309 29.9699C37.6347 22.5416 30.2509 21.9519 29.2833 21.6504C28.5449 21.4502 27.8061 21.25 27.0678 21.0498C26.6487 20.0019 26.0893 18.9761 25.3737 17.8545C24.9196 17.1429 24.3823 16.5647 23.7991 16.0937C23.7999 16.0944 23.8047 16.0965 23.8047 16.098C23.8047 16.098 24.0216 15.4123 24.8475 14.7016C25.0143 14.5686 27.7935 12.445 32.8478 14.5953L33.2043 18.0392L35.5004 17.9212L35.2232 13.2496C34.4116 12.2984 27.52 9.4387 22.5434 13.2354C21.8127 13.8681 21.3546 14.7491 21.3546 14.7491C21.3603 14.7505 21.366 14.7547 21.3715 14.7576C20.5327 14.4584 19.6969 14.2931 18.9375 14.2046C18.937 14.2018 18.9365 14.1989 18.936 14.1961C18.936 14.1961 17.97 11.5364 16.2101 10.6495C15.6438 10.3641 15.1021 10.2122 14.5264 10.1918ZM19.6351 18.1489C19.6422 18.1517 19.6493 18.156 19.6564 18.1588C19.6493 18.1582 19.6422 18.156 19.6358 18.156C19.6357 18.1531 19.6352 18.1517 19.6351 18.1489ZM19.4253 22.8439C20.172 24.098 20.717 25.2213 20.9544 26.612C20.8376 27.4565 20.661 28.2924 20.4058 29.0805C20.4058 29.0805 19.7686 28.6946 18.854 28.1608C19.0242 27.1134 19.1362 25.9845 19.275 24.714C19.3201 24.1092 19.3728 23.4716 19.4253 22.8439ZM27.7293 23.2898C27.7348 23.3186 27.742 23.3469 27.7475 23.3757C27.7784 23.5365 27.8039 23.7028 27.8325 23.8641C28.6319 24.089 29.4348 24.3087 30.2342 24.5337C30.2342 24.5337 34.1888 25.3042 33.5857 29.2925C33.0179 33.0475 27.3518 32.7511 27.3719 32.6256C28.0504 28.3861 28.1842 25.619 27.7293 23.2898Z" fill="#FBFBFC"/>
</svg>
