<svg width="56" height="56" viewBox="0 0 56 56" fill="none" xmlns="http://www.w3.org/2000/svg">
<g opacity="0.7">
<g clip-path="url(#clip0_8396_20377)">
<rect width="56" height="56" rx="12" fill="#FBFBFC"/>
<g opacity="0.5">
<rect width="56" height="56" fill="#FBFBFC"/>
<path d="M27.5483 10.1821C26.2049 10.1885 24.9227 10.3027 23.7938 10.5025C20.4688 11.0899 19.8655 12.3194 19.8655 14.587V17.5815H27.7223V18.5796H16.9166C14.6333 18.5796 12.6338 19.9519 12.0083 22.5635C11.2867 25.556 11.2548 27.4238 12.0083 30.5486C12.5667 32.8749 13.9005 34.532 16.1841 34.532H18.8858V30.9422C18.8858 28.3487 21.1293 26.0613 23.7941 26.0613H31.642C33.8267 26.0613 35.5703 24.2623 35.5703 22.0688V14.5874C35.5703 12.4578 33.7739 10.8583 31.642 10.5029C30.2917 10.2782 28.8913 10.1761 27.5483 10.1821ZM23.2993 12.5905C24.1107 12.5905 24.7738 13.264 24.7738 14.0926C24.7738 14.9176 24.111 15.5849 23.2993 15.5849C22.4848 15.5849 21.8252 14.9176 21.8252 14.0926C21.8248 13.264 22.4848 12.5905 23.2993 12.5905Z" fill="url(#paint0_linear_8396_20377)"/>
<path d="M36.5497 18.5792V22.0684C36.5497 24.7729 34.2563 27.0495 31.6415 27.0495H23.7935C21.6439 27.0495 19.8652 28.8895 19.8652 31.0424V38.5244C19.8652 40.6534 21.7164 41.906 23.7935 42.5166C26.2804 43.2475 28.6655 43.3799 31.6415 42.5166C33.6193 41.9436 35.5697 40.7911 35.5697 38.5244V35.5297H27.7221V34.5312H39.4986C41.7819 34.5312 42.6334 32.9387 43.4275 30.5479C44.2478 28.0868 44.2125 25.7198 43.4275 22.5628C42.8631 20.2894 41.7854 18.5789 39.4986 18.5789H36.5497V18.5792ZM32.1356 37.5259C32.9505 37.5259 33.6101 38.1932 33.6101 39.0189C33.6101 39.8468 32.9501 40.5204 32.1356 40.5204C31.3242 40.5204 30.6615 39.8468 30.6615 39.0189C30.6615 38.1932 31.3242 37.5259 32.1356 37.5259Z" fill="url(#paint1_linear_8396_20377)"/>
<path opacity="0.444" d="M38.3395 44.3389C38.3395 45.4662 33.6253 46.3803 27.8105 46.3803C21.9954 46.3803 17.2812 45.4662 17.2812 44.3389C17.2812 43.2113 21.9951 42.2971 27.8105 42.2971C33.6253 42.2971 38.3395 43.2109 38.3395 44.3389Z" fill="url(#paint2_radial_8396_20377)"/>
</g>
</g>
</g>
<defs>
<linearGradient id="paint0_linear_8396_20377" x1="10.6674" y1="11.1184" x2="28.7891" y2="26.5725" gradientUnits="userSpaceOnUse">
<stop stop-color="#5A9FD4"/>
<stop offset="1" stop-color="#306998"/>
</linearGradient>
<linearGradient id="paint1_linear_8396_20377" x1="35.6069" y1="36.1786" x2="29.1082" y2="27.0652" gradientUnits="userSpaceOnUse">
<stop stop-color="#FFD43B"/>
<stop offset="1" stop-color="#FFE873"/>
</linearGradient>
<radialGradient id="paint2_radial_8396_20377" cx="0" cy="0" r="1" gradientUnits="userSpaceOnUse" gradientTransform="translate(27.768 44.2804) rotate(-90) scale(2.04219 8.97714)">
<stop stop-color="#B8B8B8" stop-opacity="0.498"/>
<stop offset="1" stop-color="#7F7F7F" stop-opacity="0"/>
</radialGradient>
<clipPath id="clip0_8396_20377">
<rect width="56" height="56" rx="12" fill="white"/>
</clipPath>
</defs>
</svg>
