<svg width="40" height="41" viewBox="0 0 40 41" fill="none" xmlns="http://www.w3.org/2000/svg">
<g clip-path="url(#clip0_8595_16592)">
<rect y="0.318604" width="40" height="40" rx="6" fill="#FBFBFC"/>
<path d="M21.3164 30.2075C21.2995 30.0026 21.2894 29.8695 21.2894 29.8695C21.2894 29.8695 20.641 25.6818 19.8691 24.4321C19.747 24.234 19.8824 23.4204 20.2232 22.2153C20.4224 22.5453 21.2633 23.9568 21.4322 24.4116C21.6223 24.9258 21.6623 25.0731 21.6623 25.0731C21.6623 25.0731 21.2011 22.7998 20.4443 21.4732C20.6102 20.9369 20.8084 20.3441 21.0326 19.7105C21.3193 20.1923 22.0056 21.3589 22.1567 21.7635C22.1872 21.8467 22.213 21.9173 22.2361 21.982C22.2435 21.9431 22.2509 21.9043 22.2583 21.8654C22.085 21.1611 21.7447 19.9355 21.2787 19.03C22.3125 13.8755 25.8383 6.98566 29.4529 3.91165H5.87333C4.29301 3.91165 3 5.15056 3 6.66444V31.5759C3 33.0897 4.29301 34.3284 5.87333 34.3284H21.4034C21.2915 33.0298 21.2541 31.5931 21.3164 30.2075Z" fill="#0F80CC"/>
<path d="M20.223 22.215C20.4222 22.545 21.2632 23.9565 21.432 24.4113C21.6222 24.9255 21.6621 25.0729 21.6621 25.0729C21.6621 25.0729 21.201 22.7995 20.4441 21.473C20.61 20.9367 20.8082 20.3439 21.0324 19.7102C21.2946 20.1509 21.8902 21.1631 22.1056 21.6427C22.1136 21.5521 22.1216 21.4616 22.1299 21.3719C21.9391 20.6696 21.6494 19.7502 21.2786 19.0298C22.2306 14.2838 25.2948 8.06937 28.5961 4.71443H5.87316C4.75104 4.71443 3.83789 5.58899 3.83789 6.66418V29.7581C8.98414 27.8659 15.1895 26.1363 20.53 26.2104C20.3318 25.478 20.106 24.8157 19.869 24.4318C19.7469 24.2337 19.8823 23.4201 20.223 22.215Z" fill="url(#paint0_linear_8595_16592)"/>
<path d="M34.954 3.10065C33.3391 1.72099 31.3838 2.27518 29.4541 3.9159C29.1676 4.15966 28.8818 4.43008 28.5974 4.71896C25.2962 8.0739 22.2319 14.2883 21.2799 19.0343C21.6508 19.7548 21.9405 20.6742 22.1312 21.3765C22.1801 21.5567 22.2242 21.7258 22.2595 21.8697C22.3433 22.2101 22.3883 22.4309 22.3883 22.4309C22.3883 22.4309 22.3587 22.3236 22.2372 21.9863C22.2141 21.9216 22.1884 21.8509 22.1579 21.7678C22.1448 21.7334 22.1268 21.6917 22.1069 21.6472C21.8916 21.1676 21.2959 20.1554 21.0338 19.7148C20.8095 20.3484 20.6114 20.9412 20.4455 21.4775C21.2023 22.804 21.6635 25.0774 21.6635 25.0774C21.6635 25.0774 21.6235 24.93 21.4333 24.4158C21.2645 23.9611 20.4236 22.5496 20.2244 22.2196C19.8836 23.4247 19.7482 24.2383 19.8703 24.4364C20.1074 24.8202 20.3331 25.4825 20.5314 26.215C20.9793 27.865 21.2906 29.8738 21.2906 29.8738C21.2906 29.8738 21.3006 30.0069 21.3175 30.2117C21.2553 31.5974 21.2926 33.0341 21.4046 34.3326C21.553 36.0516 21.8323 37.5283 22.1884 38.3186L22.4301 38.1924C21.9073 36.6353 21.6949 34.5948 21.7879 32.2415C21.9286 28.6445 22.7926 24.3067 24.3892 19.7854C27.0865 12.9603 30.8288 7.48424 34.2538 4.86907C31.1321 7.56994 26.907 16.3124 25.6422 19.5499C24.226 23.1753 23.2224 26.5773 22.6176 29.8368C23.6611 26.7811 27.0352 25.4676 27.0352 25.4676C27.0352 25.4676 28.6901 23.5123 30.6241 20.719C29.4656 20.9721 27.5634 21.4054 26.9262 21.6619C25.9864 22.0396 25.7331 22.1685 25.7331 22.1685C25.7331 22.1685 28.7775 20.3924 31.3895 19.5882C34.9816 14.1683 38.8951 6.46865 34.954 3.10065Z" fill="#0F0518"/>
</g>
<defs>
<linearGradient id="paint0_linear_8595_16592" x1="18.1138" y1="5.22693" x2="18.1138" y2="28.3653" gradientUnits="userSpaceOnUse">
<stop stop-color="#97D9F6"/>
<stop offset="0.920245" stop-color="#0F80CC"/>
<stop offset="1" stop-color="#0F80CC"/>
</linearGradient>
<clipPath id="clip0_8595_16592">
<rect y="0.318604" width="40" height="40" rx="8" fill="white"/>
</clipPath>
</defs>
</svg>
