<svg width="16" height="41" viewBox="0 0 16 41" fill="none" xmlns="http://www.w3.org/2000/svg">
<g clip-path="url(#clip0_8595_16551)">
<rect x="-24" y="0.318604" width="40" height="40" rx="6" fill="#0F0518"/>
<path d="M-4 40.3186C7.04569 40.3186 16 31.3643 16 20.3186C16 9.27291 7.04569 0.318604 -4 0.318604C-15.0457 0.318604 -24 9.27291 -24 20.3186C-24 31.3643 -15.0457 40.3186 -4 40.3186Z" fill="#0F0518"/>
<path d="M-10.4751 9.70375C-11.4093 9.67044 -12.4363 9.99342 -13.8228 10.6531C-15.299 11.1323 -16.1436 12.4273 -14.4083 12.4264L-14.4505 13.5659L-15.5445 13.9894L-15.5852 15.0964C-15.5852 15.0964 -15.7537 16.383 -14.3648 16.3087C-14.546 16.3521 -14.6958 16.443 -14.4927 16.6479C-14.116 17.0278 -13.6196 16.901 -11.8198 16.9432C-10.02 16.9855 -9.82609 19.0054 -9.82609 19.0054C-9.82609 19.0054 -9.42184 22.3142 -9.48189 25.5382C-11.4318 24.4916 -13.3787 23.5651 -13.9842 23.6987C-15.3236 23.9942 -16.4679 25.3275 -15.3239 27.2446C-14.2763 29 -12.5061 30.2496 -10.7237 31.3768C-11.2558 32.2641 -11.9162 32.7336 -13.253 32.4053C-13.9252 32.2403 -13.8703 31.858 -15.6895 30.8517C-19.0389 29.4918 -18.4618 30.4624 -17.639 31.263C-15.9128 32.5053 -15.0631 33.633 -13.785 34.1599C-12.5286 34.6779 -10.8478 34.6223 -8.70424 32.7748C-8.66887 32.7365 -8.63861 32.6979 -8.6042 32.6596C-8.62852 32.688 -8.64855 32.7168 -8.67343 32.7453C-5.9312 34.4666 -2.519 35.0001 0.62619 34.2982C0.780231 34.2474 1.27945 34.1819 1.23745 34.1217C1.26329 34.1245 1.28499 34.1286 1.31097 34.1316C1.32505 34.0487 4.4506 34.47 6.75592 33.5273C8.98953 32.614 10.4474 30.9038 10.7563 29.1286C12.0258 21.833 4.83608 21.2538 3.89384 20.9577C3.17492 20.7611 2.45549 20.5645 1.73657 20.3678C1.32852 19.3386 0.783861 18.3311 0.0870209 17.2296C-0.35516 16.5306 -0.878298 15.9628 -1.44614 15.5002C-1.44535 15.5009 -1.44076 15.503 -1.44076 15.5044C-1.44076 15.5044 -1.22951 14.831 -0.425312 14.133C-0.26296 14.0024 2.44328 11.9166 7.36472 14.0286L7.71177 17.411L9.94759 17.2951L9.67766 12.7069C8.88733 11.7727 2.17687 8.96407 -2.66885 12.693C-3.38037 13.3144 -3.8264 14.1796 -3.8264 14.1796C-3.82087 14.181 -3.81535 14.1852 -3.80996 14.188C-4.6267 13.8941 -5.44054 13.7318 -6.18003 13.6449C-6.18051 13.6421 -6.18097 13.6393 -6.18141 13.6365C-6.18141 13.6365 -7.12206 11.0243 -8.83568 10.1533C-9.38707 9.87299 -9.91458 9.72373 -10.4751 9.70375ZM-5.50075 17.5187C-5.49384 17.5215 -5.48692 17.5257 -5.48002 17.5285C-5.48693 17.5279 -5.49384 17.5257 -5.50006 17.5257C-5.50016 17.5229 -5.50065 17.5215 -5.50075 17.5187ZM-5.70499 22.1299C-4.97792 23.3616 -4.44727 24.4648 -4.2161 25.8307C-4.32982 26.6601 -4.50175 27.4811 -4.75024 28.2551C-4.75024 28.2551 -5.37069 27.8761 -6.26127 27.3519C-6.09554 26.3232 -5.98651 25.2144 -5.85137 23.9666C-5.80742 23.3726 -5.75616 22.7464 -5.70499 22.1299ZM2.38069 22.5678C2.38607 22.5961 2.39312 22.6239 2.3984 22.6522C2.42854 22.8101 2.4534 22.9735 2.48118 23.1319C3.25959 23.3528 4.0414 23.5686 4.81982 23.7895C4.81982 23.7895 8.67047 24.5463 8.08322 28.4633C7.53033 32.1512 2.01317 31.8602 2.03272 31.737C2.69337 27.5731 2.82364 24.8554 2.38069 22.5678Z" fill="#FBFBFC"/>
</g>
<defs>
<clipPath id="clip0_8595_16551">
<rect x="-24" y="0.318604" width="40" height="40" rx="8" fill="white"/>
</clipPath>
</defs>
</svg>
