<svg width="37" height="20" viewBox="0 0 37 20" fill="none" xmlns="http://www.w3.org/2000/svg">
<g clip-path="url(#clip0_8396_20457)">
<path d="M3.5494 4.75736H8.90971C9.55089 4.70863 10.1945 4.81187 10.7883 5.0587C11.382 5.30552 11.9092 5.68895 12.3269 6.17784C12.6988 6.72505 12.9538 7.34308 13.076 7.9933C13.1982 8.64353 13.185 9.31197 13.0371 9.95685C12.9369 10.7036 12.7246 11.431 12.4073 12.1144C12.0855 12.828 11.6307 13.4738 11.0672 14.0173C10.4977 14.6625 9.75269 15.1281 8.92311 15.3574C8.15289 15.5567 7.36016 15.6558 6.56458 15.6522H4.21944L3.469 19.5786H0.681641L3.5494 4.75736ZM5.88114 7.11589L4.70187 13.3204H5.2245C6.30601 13.3631 7.38735 13.2318 8.42728 12.9318C9.27153 12.637 9.84776 11.5917 10.1426 9.91665C10.3838 8.46937 10.1426 7.63852 9.41894 7.41071C8.54657 7.17152 7.64267 7.06757 6.73879 7.10249H6.26976H5.86774L5.88114 7.11589Z" fill="#0F0518"/>
<path d="M16.2129 0.818115H18.9735L18.1828 4.75794H20.6754C21.7571 4.71024 22.8249 5.016 23.7174 5.62899C24.4008 6.17842 24.6018 7.22368 24.3204 8.77817L22.9803 15.6528H20.1661L21.5062 9.08639C21.584 8.84482 21.6134 8.59028 21.5928 8.33733C21.5721 8.08439 21.5017 7.83801 21.3856 7.6123C21.2062 7.44867 20.9936 7.32566 20.7624 7.25166C20.5311 7.17765 20.2866 7.1544 20.0455 7.18348H17.821L16.0923 15.6528H13.3184L16.2129 0.818115Z" fill="#0F0518"/>
<path d="M27.2818 4.75689H32.6421C33.2852 4.70924 33.9304 4.81291 34.5262 5.05958C35.1219 5.30626 35.6516 5.68909 36.0727 6.17737C36.4423 6.72558 36.6949 7.34409 36.8148 7.99429C36.9347 8.64448 36.9193 9.31242 36.7696 9.95639C36.6742 10.7026 36.4663 11.43 36.1531 12.1139C35.8256 12.8243 35.3715 13.4691 34.8131 14.0168C34.2435 14.6621 33.4985 15.1277 32.6689 15.3569C31.899 15.5579 31.1061 15.657 30.3104 15.6517H27.9653L27.2014 19.5781H24.4141L27.2818 4.75689ZM29.627 7.11543L28.4209 13.32H28.9435C30.0251 13.3635 31.1066 13.2323 32.1463 12.9314C33.0397 12.6365 33.6159 11.6315 33.875 9.91619C34.1028 8.46891 33.875 7.63806 33.1514 7.41025C32.2787 7.1725 31.375 7.06858 30.4712 7.10203H30.0156H29.5868L29.627 7.11543Z" fill="#0F0518"/>
</g>
<defs>
<clipPath id="clip0_8396_20457">
<rect width="36.1821" height="18.7611" fill="white" transform="translate(0.681641 0.818115)"/>
</clipPath>
</defs>
</svg>
