<svg width="24" height="24" viewBox="0 0 24 25" fill="none" xmlns="http://www.w3.org/2000/svg">
<path d="M5.62223 15.3424C5.62223 16.6144 4.58313 17.6535 3.31112 17.6535C2.03911 17.6535 1 16.6144 1 15.3424C1 14.0704 2.03911 13.0312 3.31112 13.0312H5.62223V15.3424Z" fill="#ababab"/>
<path d="M6.78711 15.3426C6.78711 14.0706 7.82622 13.0315 9.09823 13.0315C10.3702 13.0315 11.4093 14.0706 11.4093 15.3426V21.1294C11.4093 22.4014 10.3702 23.4405 9.09823 23.4405C7.82622 23.4405 6.78711 22.4014 6.78711 21.1294V15.3426Z" fill="#ababab"/>
<path d="M9.09823 6.06242C7.82622 6.06242 6.78711 5.02331 6.78711 3.7513C6.78711 2.47929 7.82622 1.44019 9.09823 1.44019C10.3702 1.44019 11.4093 2.47929 11.4093 3.7513V6.06242H9.09823Z" fill="#ababab"/>
<path d="M9.09786 7.22681C10.3699 7.22681 11.409 8.26591 11.409 9.53792C11.409 10.8099 10.3699 11.849 9.09786 11.849H3.31112C2.03911 11.849 1 10.8099 1 9.53792C1 8.26591 2.03911 7.22681 3.31112 7.22681H9.09786Z" fill="#ababab"/>
<path d="M18.3789 9.53792C18.3789 8.26591 19.418 7.22681 20.69 7.22681C21.962 7.22681 23.0011 8.26591 23.0011 9.53792C23.0011 10.8099 21.962 11.849 20.69 11.849H18.3789V9.53792Z" fill="#ababab"/>
<path d="M17.214 9.53805C17.214 10.8101 16.1749 11.8492 14.9029 11.8492C13.6309 11.8492 12.5918 10.8101 12.5918 9.53805V3.7513C12.5918 2.47929 13.6309 1.44019 14.9029 1.44019C16.1749 1.44019 17.214 2.47929 17.214 3.7513V9.53805Z" fill="#ababab"/>
<path d="M14.9029 18.818C16.1749 18.818 17.214 19.8571 17.214 21.1291C17.214 22.4011 16.1749 23.4402 14.9029 23.4402C13.6309 23.4402 12.5918 22.4011 12.5918 21.1291V18.818H14.9029Z" fill="#ababab"/>
<path d="M14.9029 17.6535C13.6309 17.6535 12.5918 16.6144 12.5918 15.3424C12.5918 14.0704 13.6309 13.0312 14.9029 13.0312H20.6897C21.9617 13.0312 23.0008 14.0704 23.0008 15.3424C23.0008 16.6144 21.9617 17.6535 20.6897 17.6535H14.9029Z" fill="#ababab"/>
</svg>
