<svg width="16" height="16" viewBox="0 0 16 16" fill="none" xmlns="http://www.w3.org/2000/svg">
<g clip-path="url(#clip0_8396_19964)">
<path d="M13.5536 3.00498C12.5023 2.52873 11.3926 2.19086 10.2526 2C10.0966 2.27595 9.95549 2.55987 9.82978 2.85056C8.61552 2.66949 7.38069 2.66949 6.16642 2.85056C6.04065 2.5599 5.89951 2.27598 5.74358 2C4.6029 2.19247 3.49241 2.53114 2.44013 3.00747C0.351097 6.066 -0.215208 9.04857 0.0679445 11.9888C1.29134 12.8833 2.66066 13.5635 4.1164 14C4.44418 13.5637 4.73423 13.1009 4.98347 12.6164C4.51008 12.4415 4.05318 12.2256 3.61805 11.9714C3.73257 11.8892 3.84457 11.8045 3.9528 11.7223C5.21892 12.3115 6.60084 12.617 7.99999 12.617C9.39914 12.617 10.7811 12.3115 12.0472 11.7223C12.1567 11.8107 12.2687 11.8954 12.3819 11.9714C11.946 12.226 11.4882 12.4423 11.014 12.6177C11.2629 13.1019 11.553 13.5644 11.8811 14C13.338 13.5653 14.7084 12.8853 15.932 11.99C16.2643 8.58032 15.3645 5.62516 13.5536 3.00498ZM5.34213 10.1806C4.55308 10.1806 3.9012 9.47198 3.9012 8.60025C3.9012 7.72852 4.53043 7.0137 5.33961 7.0137C6.1488 7.0137 6.79565 7.72852 6.7818 8.60025C6.76796 9.47198 6.14628 10.1806 5.34213 10.1806ZM10.6578 10.1806C9.86754 10.1806 9.21817 9.47198 9.21817 8.60025C9.21817 7.72852 9.8474 7.0137 10.6578 7.0137C11.4683 7.0137 12.1101 7.72852 12.0963 8.60025C12.0824 9.47198 11.462 10.1806 10.6578 10.1806Z" fill="#0F0518"/>
</g>
<defs>
<clipPath id="clip0_8396_19964">
<rect width="16" height="16" fill="white"/>
</clipPath>
</defs>
</svg>
