<svg width="32" height="33" viewBox="0 0 32 33" fill="none" xmlns="http://www.w3.org/2000/svg">
<path fill-rule="evenodd" clip-rule="evenodd" d="M30.6107 2.10339C20.1583 2.10339 16 6.59961 16 6.59961C16 6.59961 11.9117 2.10077 1.38933 2.10077C1.20958 2.09334 1.03016 2.12173 0.861876 2.18421C0.693589 2.2467 0.539916 2.34199 0.410112 2.46435C0.280307 2.5867 0.177057 2.7336 0.106576 2.89618C0.0360952 3.05877 -0.000157718 3.23369 5.15756e-07 3.4104V24.3645C-0.000274729 24.703 0.132856 25.0284 0.371484 25.2725C0.610111 25.5167 0.935703 25.6606 1.28 25.6741C6.65774 25.6616 11.8686 27.5077 16 30.8891C20.1318 27.5086 25.3426 25.6635 30.72 25.6768C31.0643 25.6632 31.3899 25.5193 31.6285 25.2751C31.8671 25.031 32.0003 24.7056 32 24.3671V3.41302C32.0002 3.23631 31.9639 3.06139 31.8934 2.8988C31.8229 2.73622 31.7197 2.58932 31.5899 2.46696C31.4601 2.34461 31.3064 2.24932 31.1381 2.18683C30.9698 2.12435 30.7904 2.09596 30.6107 2.10339ZM16.0002 27.1528C19.8482 24.5531 24.3406 23.024 28.9999 22.7293V5.14355C23.5696 5.41891 19.6216 7.10206 15.9805 11.039L16.0002 27.1528Z" fill="#0F0518"/>
</svg>
