<svg width="36" height="36" viewBox="0 0 36 36" fill="none" xmlns="http://www.w3.org/2000/svg">
<g clip-path="url(#clip0_8396_20415)">
<path d="M35.818 0.181885H0.181641V35.8182H35.818V0.181885Z" fill="#F7DF1E"/>
<path d="M24.1199 28.0228C24.8377 29.1948 25.7716 30.0563 27.4234 30.0563C28.8109 30.0563 29.6973 29.3628 29.6973 28.4046C29.6973 27.2563 28.7866 26.8496 27.2593 26.1816L26.4221 25.8224C24.0057 24.7929 22.4003 23.5032 22.4003 20.7767C22.4003 18.2652 24.3139 16.3533 27.3046 16.3533C29.4337 16.3533 30.9644 17.0943 32.0674 19.0345L29.4597 20.7088C28.8856 19.6793 28.2662 19.2738 27.3046 19.2738C26.3237 19.2738 25.7021 19.896 25.7021 20.7088C25.7021 21.7134 26.3243 22.1201 27.7611 22.7424L28.5982 23.101C31.4435 24.3211 33.0499 25.565 33.0499 28.3616C33.0499 31.3765 30.6815 33.0283 27.5009 33.0283C24.3909 33.0283 22.3817 31.5462 21.3986 29.6038L24.1199 28.0228ZM12.2904 28.3129C12.8164 29.2463 13.295 30.0354 14.4455 30.0354C15.5457 30.0354 16.2398 29.6049 16.2398 27.9311V16.5445H19.5885V27.9764C19.5885 31.4439 17.5555 33.022 14.588 33.022C11.9068 33.022 10.3541 31.6345 9.56445 29.9632L12.2904 28.3129Z" fill="#0F0518"/>
</g>
<defs>
<clipPath id="clip0_8396_20415">
<rect width="35.6364" height="35.6364" fill="white" transform="translate(0.181641 0.181885)"/>
</clipPath>
</defs>
</svg>
