<svg width="46" height="32" viewBox="0 0 46 32" fill="none" xmlns="http://www.w3.org/2000/svg">
<path d="M39.1882 11.3324C38.9588 9.6325 38.0145 8.17548 36.3011 6.83989L35.3163 6.17883L34.6552 7.16367C33.8188 8.43181 33.3871 10.1991 33.522 11.8855C33.5894 12.4791 33.7783 13.5449 34.3854 14.4757C33.7783 14.7995 32.5776 15.2582 30.9722 15.2312H0.347864L0.2939 15.582C0.0105911 17.2818 0.0105913 22.5703 3.45077 26.6445C6.068 29.7339 9.98036 31.3124 15.1069 31.3124C26.1964 31.3124 34.3989 26.2128 38.2438 16.9311C39.7548 16.9581 43.0061 16.9446 44.679 13.7472C44.7194 13.6798 44.8274 13.4774 45.1107 12.8838L45.2726 12.5465L44.3282 11.9125C43.3164 11.2379 40.9824 10.9951 39.1882 11.3324ZM24.8473 0H20.193V4.23614H24.8473V0ZM24.8473 5.08607H20.193V9.30872H24.8473V5.08607ZM19.343 5.08607H14.6887V9.30872H19.343V5.08607ZM13.8388 5.08607H9.1844V9.30872H13.8388V5.08607ZM8.33448 10.1586H3.68012V14.3948H8.33448V10.1586ZM13.8388 10.1586H9.1844V14.3948H13.8388V10.1586ZM19.343 10.1586H14.6887V14.3948H19.343V10.1586ZM24.8473 10.1586H20.193V14.3948H24.8473V10.1586ZM30.3516 10.1586H25.6973V14.3948H30.3516V10.1586Z" fill="#019BC6"/>
</svg>
