<svg width="42" height="48" viewBox="0 0 42 48" fill="none" xmlns="http://www.w3.org/2000/svg">
<path d="M40.3437 11.0791L23.3062 1.18629C22.2317 0.574295 20.8327 0.574295 19.7497 1.18629L2.53029 11.0791C1.42142 11.717 0.636719 12.9159 0.636719 14.1982V33.9577C0.636719 35.24 1.4419 36.4393 2.55076 37.0806L7.1002 39.6646C9.27465 40.7356 10.0431 40.7356 11.0326 40.7356C14.2522 40.7356 16.0913 38.7887 16.0913 35.393V15.8855C16.0913 15.61 15.9479 15.2001 15.6775 15.2001H13.5049C13.2299 15.2001 12.614 15.61 12.614 15.8851V35.3926C12.614 36.8979 11.2524 38.3958 8.70785 37.1235L4.00697 34.414C3.84315 34.3251 3.72763 34.1462 3.72763 33.9577V14.1982C3.72763 14.012 3.94206 13.825 4.10704 13.7296L21.2709 3.85375C21.4312 3.76295 21.6669 3.76295 21.8268 3.85375L38.7812 13.7273C38.9435 13.825 38.8863 14.0062 38.8863 14.1982V33.9577C38.8863 34.1462 38.957 34.3297 38.7967 34.4205L21.7635 44.3022C21.6174 44.3899 21.4362 44.3899 21.2763 44.3022L16.9076 41.6946C16.7759 41.6181 16.6194 41.5907 16.4931 41.6614C15.2776 42.3502 15.0535 42.4418 13.9133 42.8371C13.6328 42.9348 13.219 43.1044 14.0717 43.5824L19.7892 46.9646C20.335 47.2799 20.9542 47.4459 21.5846 47.446C22.219 47.446 22.8403 47.2814 23.3877 46.9646L40.3433 37.0806C41.4522 36.4346 41.9776 35.24 41.9776 33.9577V14.1982C41.9776 12.9159 41.4522 11.7201 40.3437 11.0791ZM26.8747 30.8266C22.3442 30.8266 21.3462 29.5767 21.0135 27.3238C20.9749 27.0812 20.769 26.791 20.5221 26.791H18.3078C18.0339 26.791 17.8137 27.1233 17.8137 27.396C17.8137 30.2806 19.3819 33.7757 26.8751 33.7757C32.2992 33.7757 35.4091 31.6681 35.4091 27.9381C35.4091 24.2398 32.9104 23.2693 27.6501 22.5731C22.333 21.8703 21.7928 21.5152 21.7928 20.2696C21.7928 19.2426 22.2503 17.873 26.1873 17.873C29.7052 17.873 31.0018 18.6279 31.5354 20.999C31.581 21.222 31.7846 21.3819 32.0145 21.3819H34.2376C34.3744 21.3819 34.505 21.3267 34.6008 21.2289C34.6935 21.1238 34.7426 20.9921 34.7302 20.8507C34.386 16.7676 31.6733 14.8647 26.1869 14.8647C21.3068 14.8647 18.3955 16.9256 18.3955 20.3801C18.3955 24.127 21.2921 25.1625 25.9768 25.6257C31.581 26.1751 32.0168 26.9942 32.0168 28.0965C32.0168 30.011 30.4798 30.8266 26.8747 30.8266Z" fill="#83CD29"/>
</svg>
