<svg width="40" height="41" viewBox="0 0 40 41" fill="none" xmlns="http://www.w3.org/2000/svg">
<path d="M2.64615 20.8794C2.64615 27.7563 6.64615 33.6794 12.4308 36.4948L4.15385 13.8179C3.15996 16.0394 2.6462 18.4457 2.64615 20.8794ZM20 38.2332C22.0154 38.2332 23.9538 37.8794 25.7692 37.2486L25.6462 37.0179L20.3077 22.4025L15.1077 37.5255C16.6462 37.9871 18.2923 38.2332 20 38.2332ZM22.3846 12.7409L28.6615 31.4025L30.4 25.6179C31.1385 23.2179 31.7077 21.4948 31.7077 20.0025C31.7077 17.8486 30.9385 16.3717 30.2923 15.2332C29.4 13.7871 28.5846 12.5717 28.5846 11.1563C28.5846 9.55632 29.7846 8.07939 31.5077 8.07939H31.7231C28.5254 5.14387 24.3407 3.51832 20 3.52555C17.1259 3.52501 14.2967 4.23897 11.7669 5.6032C9.23722 6.96743 7.0863 8.93913 5.50769 11.3409L6.61539 11.3717C8.43077 11.3717 11.2308 11.1409 11.2308 11.1409C12.1846 11.0948 12.2923 12.464 11.3538 12.5717C11.3538 12.5717 10.4154 12.6948 9.35385 12.7409L15.6923 31.5409L19.4923 20.1563L16.7846 12.7409C16.1781 12.7075 15.5727 12.6562 14.9692 12.5871C14.0308 12.5255 14.1385 11.0948 15.0769 11.1409C15.0769 11.1409 17.9385 11.3717 19.6462 11.3717C21.4615 11.3717 24.2615 11.1409 24.2615 11.1409C25.2 11.0948 25.3231 12.464 24.3846 12.5717C24.3846 12.5717 23.4462 12.6794 22.3846 12.7409ZM28.7231 35.8794C31.3484 34.3529 33.5271 32.1642 35.0417 29.532C36.5562 26.8998 37.3535 23.9162 37.3538 20.8794C37.3538 17.864 36.5846 15.0332 35.2308 12.5563C35.5057 15.2814 35.0931 18.0319 34.0308 20.5563L28.7231 35.8794ZM20 40.8794C14.6957 40.8794 9.60859 38.7723 5.85786 35.0215C2.10714 31.2708 0 26.1837 0 20.8794C0 15.5751 2.10714 10.488 5.85786 6.73726C9.60859 2.98653 14.6957 0.879395 20 0.879395C25.3043 0.879395 30.3914 2.98653 34.1421 6.73726C37.8929 10.488 40 15.5751 40 20.8794C40 26.1837 37.8929 31.2708 34.1421 35.0215C30.3914 38.7723 25.3043 40.8794 20 40.8794Z" fill="#0F0518"/>
</svg>
